<svg xmlns="http://www.w3.org/2000/svg" version="1.1" xmlns:xlink="http://www.w3.org/1999/xlink" width="1000" height="1000"><g clip-path="url(#SvgjsClipPath1034)"><rect width="1000" height="1000" fill="#ffffff"></rect><g transform="matrix(0.87890625,0,0,0.87890625,50,50)"><svg xmlns="http://www.w3.org/2000/svg" version="1.1" xmlns:xlink="http://www.w3.org/1999/xlink" width="1024" height="1024"><svg version="1.2" xmlns="http://www.w3.org/2000/svg" viewBox="0 0 1024 1024" width="1024" height="1024">
	<style>
		.s0 { fill: #000000 } 
	</style>
	<g>
		<path class="s0" d="m354.68 137.55c-1.26 0.24-2.76 0.87-3.4 1.5-0.63 0.63-1.89 1.11-2.76 1.11-0.87 0-2.45 0.87-3.47 1.97-1.03 1.11-2.06 1.98-2.29 1.98-0.79 0-2.77 2.21-2.77 3.08 0 0.47-0.31 0.86-0.79 0.86-0.39 0-0.79 0.56-0.79 1.19 0 0.63-0.39 1.18-0.87 1.18-1.02 0-5.44 4.35-5.44 5.45 0 0.4-0.48 1.27-1.03 1.82-1.5 1.58-2.92 5.21-2.92 7.34 0 1.27-0.48 1.98-1.19 1.98-0.79 0-1.18 0.86-1.18 2.76 0 1.9-0.4 2.76-1.19 2.76-1.02 0-1.18 2.14-1.18 14.61 0 8.53 0.32 14.61 0.71 14.61 0.4 0 1.03 0.79 1.34 1.74 0.24 0.95 1.03 2.21 1.58 2.84 0.63 0.55 1.11 2.13 1.11 3.4 0 1.26 0.39 2.29 0.79 2.29 0.47 0 0.79 1.26 0.79 2.76 0 1.89 0.39 2.76 1.18 2.76 0.63 0 1.19 0.56 1.19 1.19 0 0.63 0.39 1.18 0.79 1.18 0.47 0 0.79 0.87 0.79 1.98 0 1.26 0.47 1.97 1.18 1.97 0.63 0 1.18 0.55 1.18 1.18 0 0.64 0.4 1.19 0.87 1.19 1.11 0 3.08 1.97 3.08 3.08 0 0.47 0.48 0.87 1.03 0.87 0.63 0 1.5 0.87 2.13 1.89 0.55 1.11 1.82 2.13 2.84 2.37 1.03 0.32 1.9 0.87 1.9 1.26 0 0.48 0.55 0.79 1.18 0.79 0.63 0 1.19 0.32 1.19 0.79 0 0.4 0.55 0.79 1.18 0.79 0.63 0 1.19 0.56 1.19 1.19 0 0.71 0.71 1.18 1.81 1.18 1.03 0 2.21 0.4 2.77 0.95 1.26 1.26 1.42 134.08 0.15 134.08-0.47 0-0.79 3.24-0.79 8.21 0 6.16-0.31 8.53-1.1 9.4-0.79 0.71-1.26 3.08-1.34 6.79-0.08 3.08-0.48 5.61-0.87 5.61-0.32 0-0.63 1.58-0.63 3.55 0 2.61-0.32 3.55-1.19 3.55-0.79 0-1.18 0.79-1.18 2.69 0 1.66-0.48 2.84-1.19 3.16-0.71 0.23-1.18 1.5-1.18 3.23 0 1.5-0.32 2.77-0.79 2.77-0.4 0-0.79 1.42-0.79 3.16 0 2.29-0.32 3.16-1.19 3.16-0.63 0-1.18 0.63-1.18 1.34 0 2.37-1.89 6.55-2.92 6.55-0.63 0-1.03 1.11-1.03 3.16 0 1.74-0.31 3.16-0.79 3.16-0.39 0-0.79 0.87-0.79 1.97 0 1.27-0.47 1.98-1.18 1.98-0.87 0-1.19 0.87-1.19 3.08 0 1.73-0.55 3.63-1.18 4.34-0.63 0.63-1.18 2.05-1.18 3.16 0 1.1-0.32 2.05-0.79 2.05-0.4 0-0.79 0.87-0.79 1.98 0 1.26-0.48 1.97-1.19 1.97-0.71 0-1.18 0.71-1.18 1.97 0 1.11-0.32 1.98-0.79 1.98-0.4 0-0.79 0.87-0.79 1.89 0 1.11-0.56 2.45-1.19 3.16-0.63 0.63-1.18 1.74-1.18 2.45 0 0.63-0.55 1.42-1.19 1.66-0.63 0.31-1.18 1.18-1.18 1.97 0 0.79-0.32 1.5-0.79 1.5-0.39 0-0.79 1.74-0.79 3.95 0 3-0.32 3.95-1.18 3.95-0.71 0-1.19 0.71-1.19 1.97 0 1.11-0.31 1.98-0.79 1.98-0.39 0-0.79 0.86-0.79 1.97 0 1.18-0.47 1.97-1.1 1.97-0.63 0-1.35 0.87-1.58 1.98-0.32 1.1-0.87 1.97-1.27 1.97-0.47 0-0.79 1.03-0.79 2.37 0 1.26-0.31 2.37-0.79 2.37-0.39 0-0.78 0.87-0.78 1.97 0 1.27-0.48 1.98-1.19 1.98-0.71 0-1.18 0.71-1.18 1.97 0 1.11-0.32 1.98-0.79 1.98-0.4 0-0.79 1.42-0.79 3.16 0 2.29-0.32 3.15-1.19 3.15-0.71 0-1.18 0.71-1.18 1.9 0 1.03-0.55 2.05-1.19 2.37-0.63 0.23-1.18 1.18-1.18 2.05 0 0.87-0.32 1.58-0.71 1.58-0.4 0-0.87 1.42-1.19 3.08-0.23 1.74-0.86 3.24-1.26 3.4-0.47 0.15-0.95 1.02-1.03 2.05 0 0.95-0.39 1.74-0.71 1.74-0.31 0-0.63 0.86-0.63 1.97 0 1.26-0.47 1.97-1.18 1.97-0.71 0-1.19 0.79-1.19 2.06 0 2.05-1.58 4.26-3.08 4.26-0.47 0-0.87 1.42-0.87 3.16 0 2.29-0.31 3.16-1.18 3.16-0.71 0-1.18 0.71-1.18 1.97 0 1.11-0.32 1.98-0.79 1.98-0.4 0-0.79 0.86-0.79 1.97 0 1.26-0.48 1.97-1.19 1.97-0.87 0-1.18 0.87-1.18 3.16 0 1.74-0.32 3.16-0.79 3.16-0.4 0-0.79 0.87-0.79 1.98 0 1.26-0.48 1.97-1.19 1.97-0.71 0-1.18 0.71-1.18 1.97 0 1.11-0.55 2.21-1.19 2.45-0.63 0.32-1.18 1.34-1.18 2.29 0 1.03-0.32 2.13-0.79 2.37-0.39 0.24-0.79 1.18-0.79 2.05 0 0.79-0.47 1.5-1.1 1.5-1.03 0-1.5 1.42-2.61 7.66-0.24 1.5-0.87 2.61-1.5 2.61-0.55 0-1.26 0.87-1.58 1.97-0.24 1.11-0.79 1.98-1.18 1.98-0.4 0-0.71 0.87-0.71 1.97 0 1.11-0.32 1.98-0.79 1.98-0.4 0-0.79 1.42-0.79 3.15 0 2.29-0.32 3.16-1.19 3.16-0.71 0-1.18 0.71-1.18 1.98 0 1.1-0.32 1.97-0.79 1.97-0.4 0-0.79 0.87-0.79 1.97 0 1.27-0.48 1.98-1.19 1.98q-1.18 0-1.18 2.37 0 2.37-1.19 2.37c-0.71 0-1.18 0.71-1.18 1.97 0 1.11-0.32 1.97-0.79 1.97-0.39 0-0.79 1.19-0.79 2.69 0 1.66-0.47 2.84-1.18 3.16-0.64 0.23-1.19 1.34-1.19 2.45 0 1.1-0.31 1.97-0.79 1.97-0.39 0-0.79 0.87-0.79 1.97 0 1.27-0.47 1.98-1.18 1.98-0.71 0-1.19 0.71-1.19 1.97 0 1.11-0.31 1.98-0.79 1.98-0.39 0-0.94 0.87-1.26 1.97-0.24 1.11-0.79 1.97-1.18 1.97-0.4 0-0.71 0.87-0.71 1.98 0 1.26-0.48 1.97-1.19 1.97q-1.18 0-1.18 2.37c0 1.27-0.32 2.37-0.79 2.37-0.4 0-0.79 0.87-0.79 1.97 0 1.27-0.48 1.98-1.19 1.98-0.87 0-1.18 0.87-1.18 3.16 0 1.73-0.32 3.16-0.79 3.16-0.4 0-0.79 0.86-0.79 1.97 0 1.26-0.47 1.97-1.19 1.97-0.71 0-1.18 0.71-1.18 1.9 0 1.1-0.47 2.45-1.03 3-0.55 0.55-1.73 2.68-2.52 4.82-0.79 2.05-1.74 3.71-2.06 3.71-0.39 0-0.71 1.02-0.71 2.37 0 1.26-0.31 2.37-0.79 2.37-0.39 0-0.79 0.86-0.79 1.97 0 1.18-0.47 1.97-1.1 1.97-0.63 0-1.34 0.87-1.58 1.98-0.32 1.1-0.87 1.97-1.26 1.97-0.48 0-0.79 1.03-0.79 2.29 0 1.34-0.4 2.61-0.79 2.84-0.4 0.24-0.79 1.51-0.79 2.85 0 1.5-0.4 2.29-1.19 2.29q-1.18 0-1.18 2.37c0 1.26-0.32 2.37-0.79 2.37-0.4 0-0.79 0.86-0.79 1.97 0 1.26-0.48 1.97-1.19 1.97-0.71 0-1.18 0.71-1.18 1.98 0 1.26-0.47 1.97-1.18 1.97-1.03 0-1.66 2.45-1.27 4.9 0 0.39-0.24 0.63-0.71 0.63-0.39 0-0.79 0.55-0.79 1.18 0 0.64-0.47 1.19-1.1 1.19-0.71 0-1.27 1.18-1.58 3.31-0.95 7.35-1.42 9.32-2.53 9.32-0.79 0-1.11 0.95-1.11 3.08 0 1.82-0.55 3.63-1.26 4.42-0.87 0.79-1.18 2.14-0.95 3.95 0.24 1.9 0 2.77-0.71 2.77-0.63 0-1.02 1.1-1.02 3.15 0 2.22-0.32 3.16-1.11 3.16-2.37 0-2.61 41.3-0.32 42.72 0.48 0.32 1.03 2.37 1.27 4.58 0.16 2.21 0.63 4.03 0.87 4.03 0.31 0 0.63 1.26 0.71 2.84 0.16 1.58 0.71 3.4 1.34 4.03 0.63 0.63 1.18 1.97 1.18 3.08 0 1.18 0.48 1.89 1.19 1.89 0.87 0 1.18 0.87 1.18 3.16 0 1.74 0.4 3.16 0.79 3.16 0.48 0 0.79 0.87 0.79 1.97 0 1.27 0.48 1.98 1.19 1.98 0.63 0 1.18 0.55 1.18 1.18 0 0.64 0.4 1.19 0.79 1.19 0.47 0 0.79 0.87 0.79 1.97 0 1.27 0.47 1.98 1.19 1.98 0.63 0 1.18 0.47 1.18 1.1 0 0.63 0.55 1.34 1.18 1.58 0.71 0.24 1.66 1.5 2.06 2.84 0.47 1.27 1.34 2.37 1.97 2.37 0.63 0 1.11 0.4 1.11 0.87 0 1.11 1.97 3.08 3.08 3.08 0.47 0 0.86 0.55 0.86 1.19 0 0.63 0.56 1.18 1.19 1.18 0.63 0 1.18 0.39 1.18 0.87 0 1.1 1.98 3.08 3.08 3.08 0.48 0 0.87 0.47 0.87 1.02 0 1.11 3.16 2.93 5.13 2.93 0.64 0 1.19 0.39 1.19 0.86 0 1.11 1.97 3.08 3.08 3.08 0.47 0 0.87 0.56 0.87 1.19 0 0.71 0.71 1.18 1.97 1.18 1.26 0 1.98 0.48 1.98 1.19 0 0.63 0.63 1.18 1.34 1.18 1.97 0 8.13 2.45 8.13 3.24 0 0.39 0.55 0.71 1.19 0.71 0.63 0 1.18 0.32 1.18 0.79 0 0.39 1.42 0.79 3.16 0.79 2.29 0 3.16 0.32 3.16 1.18 0 0.87 0.87 1.19 3.16 1.19 2.21 0 3.15 0.31 3.15 1.1 0 0.87 1.5 1.27 5.77 1.58 3.08 0.32 10.34 0.87 15.95 1.35 6.24 0.47 51.96 0.94 115.92 1.18l105.57 0.32v-22.11-22.03l-110.94-0.24c-82.04-0.16-111.18-0.48-111.58-1.11-0.31-0.55-2.45-1.18-4.66-1.42-2.29-0.24-5.92-0.71-8.13-0.95-2.61-0.31-3.95-0.86-3.95-1.58 0-0.63-0.79-1.1-1.97-1.1-1.27 0-1.98-0.47-1.98-1.19 0-0.71-0.71-1.18-1.97-1.18-1.11 0-1.97-0.39-1.97-0.79 0-0.47-0.87-0.79-1.98-0.79-1.26 0-1.97-0.47-1.97-1.18 0-0.64-0.55-1.19-1.19-1.19-0.63 0-1.18-0.39-1.18-0.79 0-0.47-0.55-0.79-1.19-0.79-0.63 0-1.18-0.39-1.18-0.87 0-0.55-1.26-2.05-2.76-3.55-1.5-1.42-2.77-2.92-2.77-3.39 0-0.48-0.55-0.87-1.18-0.87-0.63 0-1.19-0.4-1.19-0.87 0-0.48-0.47-1.34-1.02-1.9-2.61-2.92-2.92-3.71-2.92-6.31 0-1.9-0.32-2.77-1.19-2.77-0.87 0-1.18-0.87-1.18-3.16 0-1.73-0.4-3.15-0.79-3.15-0.56 0-0.79-4.74-0.56-14.46 0.4-15.08 1.43-24.4 2.85-24.87 0.47-0.16 0.87-1.5 0.87-3 0-1.5 0.39-2.68 0.79-2.68 0.47 0 0.78-1.43 0.78-3.16 0-2.29 0.32-3.16 1.19-3.16 0.87 0 1.18-0.87 1.18-3.16 0-2.29 0.32-3.16 1.19-3.16 0.71 0 1.18-0.71 1.18-1.97 0-1.11 0.4-1.98 0.79-1.98 0.48 0 0.79-0.87 0.79-1.89 0-1.11 0.55-2.45 1.19-3.16 0.63-0.63 1.18-1.5 1.18-1.97 0-0.48 0.4-0.87 0.79-0.87 0.47 0 0.79-0.87 0.79-1.98 0-1.26 0.47-1.97 1.18-1.97 0.87 0 1.19-0.87 1.19-3.16 0-2.29 0.31-3.16 1.18-3.16 0.71 0 1.19-0.71 1.19-1.97 0-1.11 0.31-1.98 0.79-1.98 0.39 0 0.94-1.26 1.26-2.76 0.24-1.5 0.71-2.76 1.03-2.76 0.55 0 2.45-5.69 2.45-7.51 0-0.63 0.55-1.18 1.18-1.18q1.18 0 1.18-2.37c0-1.42 0.48-2.6 1.19-2.84 0.63-0.32 1.18-1.19 1.18-1.98 0-0.79 0.4-1.5 0.79-1.5 0.48 0 0.79-0.86 0.79-1.97 0-1.26 0.48-1.97 1.19-1.97 0.71 0 1.18-0.71 1.18-1.98 0-1.1 0.4-1.97 0.79-1.97 0.47 0 0.79-0.87 0.79-1.9 0-1.1 0.55-2.45 1.18-3.16 0.64-0.63 1.19-2.05 1.19-3.15 0-1.27 0.47-2.06 1.18-2.06 0.71 0 1.19-0.71 1.19-1.97 0-1.11 0.39-1.98 0.79-1.98 0.47 0 0.79-0.86 0.79-1.89 0-1.03 0.55-2.05 1.18-2.37 0.63-0.24 1.19-1.34 1.19-2.45 0-1.1 0.39-1.97 0.79-1.97 0.47 0 0.79-0.87 0.79-1.98 0-1.26 0.47-1.97 1.18-1.97 0.71 0 1.18-0.71 1.18-1.9 0-1.02 0.56-2.05 1.19-2.36 0.63-0.24 1.18-1.19 1.18-2.06 0-0.87 0.4-1.58 0.79-1.58 0.48 0 0.79-1.42 0.79-3.16 0-2.28 0.32-3.15 1.19-3.15 0.71 0 1.18-0.71 1.18-1.98 0-1.1 0.4-1.97 0.79-1.97 0.48 0 0.79-0.87 0.79-1.9 0-1.1 0.55-2.44 1.19-3.16 0.63-0.63 1.26-2.05 1.34-3.15 0.08-1.11 0.39-2.06 0.71-2.06 0.31 0 0.79-0.87 1.03-1.97 0.31-1.11 0.86-1.98 1.26-1.98 0.47 0 0.79-0.86 0.79-1.97 0-1.1 0.55-2.21 1.18-2.45 0.63-0.31 1.19-1.18 1.19-2.05 0-0.87 0.47-2.05 1.02-2.61 2.85-3.23 2.85-3.31 4.27-11.29 0.23-1.42 0.87-2.52 1.5-2.52 0.63 0 1.1-0.79 1.1-1.98 0-1.26 0.48-1.97 1.19-1.97 0.71 0 1.18-0.71 1.18-1.98 0-1.1 0.4-1.97 0.79-1.97 0.48 0 0.79-0.87 0.79-1.98 0-1.26 0.48-1.97 1.19-1.97 1.02 0 1.73-3 1.26-5.76 0-0.32 0.32-0.56 0.71-0.56 0.47 0 0.79-0.55 0.79-1.18 0-0.63 0.55-1.19 1.18-1.19 0.71 0 1.19-0.71 1.19-1.97 0-1.26 0.47-1.97 1.18-1.97 0.87 0 1.19-0.87 1.19-3.16 0-1.74 0.39-3.16 0.79-3.16 0.47 0 0.79-0.87 0.79-1.97 0-1.27 0.47-1.98 1.18-1.98 1.03 0 1.66-2.45 1.26-4.97 0-0.32 0.24-0.56 0.64-0.56 0.39 0 0.94-0.86 1.18-1.97 0.32-1.11 0.87-1.97 1.26-1.97 0.48 0 0.79-1.03 0.79-2.29 0-1.27 0.48-2.45 1.19-2.77 0.71-0.23 1.18-1.42 1.18-2.84 0-1.26 0.4-2.37 0.79-2.37 0.48 0 0.79-0.55 0.79-1.18 0-0.64 0.55-1.19 1.19-1.19q1.18 0 1.18-2.37c0-1.34 0.4-2.37 0.79-2.37 0.47 0 0.79-0.87 0.79-1.89 0-1.11 0.55-2.45 1.18-3.16 0.64-0.63 1.19-1.5 1.19-1.97 0-0.48 0.39-0.87 0.79-0.87 0.47 0 0.79-1.42 0.79-3.16 0-2.29 0.31-3.16 1.18-3.16 0.71 0 1.19-0.71 1.19-1.97 0-1.27 0.47-1.98 1.18-1.98 0.71 0 1.19-0.71 1.19-1.97 0-1.11 0.39-1.98 0.79-1.98 0.47 0 0.79-0.86 0.79-1.89 0-1.11 0.55-2.45 1.18-3.16 0.63-0.63 1.18-1.5 1.18-1.97 0-0.48 0.4-0.87 0.79-0.87 0.48 0 0.79-1.03 0.79-2.29 0-1.27 0.48-2.85 1.11-3.4 0.55-0.63 1.34-1.89 1.58-2.84 0.31-0.95 0.95-1.74 1.34-1.74 0.4 0 0.71-1.42 0.71-3.16 0-1.73 0.32-3.16 0.71-3.16 0.4 0 0.95-0.86 1.19-1.97 0.31-1.1 0.87-1.97 1.26-1.97 0.47 0 0.79-0.95 0.79-2.06 0-2.05 1.58-4.26 3.08-4.26 0.47 0 0.87-1.42 0.87-3.16 0-2.29 0.31-3.16 1.18-3.16 0.71 0 1.19-0.71 1.19-1.97 0-1.11 0.39-1.98 0.79-1.98 0.47 0 0.79-0.86 0.79-1.97 0-1.26 0.47-1.97 1.18-1.97 0.95 0 1.19-1.03 1.19-4.35 0-2.37 0.39-4.34 0.78-4.34 0.48 0 0.79-0.87 0.79-1.97 0-1.27 0.48-1.98 1.19-1.98 0.71 0 1.18-0.71 1.18-1.97 0-1.27 0.48-1.98 1.19-1.98 0.87 0 1.18-0.86 1.18-3.15 0-1.74 0.4-3.16 0.79-3.16 0.48 0 0.79-0.87 0.79-1.98 0-1.26 0.48-1.97 1.19-1.97 0.86 0 1.18-0.87 1.18-3.16 0-1.74 0.4-3.16 0.79-3.16 0.47 0 0.79-1.1 0.79-2.37 0-1.42 0.47-2.6 1.18-2.84 0.71-0.32 1.19-1.5 1.19-2.76 0-1.27 0.39-2.29 0.79-2.29 0.47 0 0.79-2.21 0.79-5.14 0-3.87 0.31-5.29 1.18-5.6 0.79-0.32 1.19-1.58 1.19-3.95 0-2.53 0.31-3.48 1.18-3.48 0.87 0 1.19-0.86 1.19-3.15 0-1.74 0.39-3.16 0.79-3.16 0.47 0 0.79-2.85 0.79-7.03 0-5.21 0.31-7.34 1.18-8.29 1.58-1.5 1.74-19.82 0.24-20.53-0.79-0.4-0.79-0.55 0-0.95 0.71-0.32 0.94-17.29 0.94-80.86v-80.38l-1.97-0.48c-1.11-0.31-1.97-0.87-1.97-1.26 0-0.47-3.79-0.79-9.48-0.79-5.76 0-9.48-0.32-9.48-0.79 0-0.47-0.86-0.79-1.97-0.79-1.26 0-1.97-0.47-1.97-1.18 0-0.64-0.32-1.19-0.79-1.19-0.4 0-0.79-0.87-0.79-1.89 0-1.03-0.4-2.06-0.95-2.21-0.63-0.24-1.11-2.61-1.26-6.4-0.32-5.21-0.16-6.08 0.94-6.08 0.71 0 1.27-0.4 1.27-0.79 0-0.55 23.92-0.79 70.27-0.79h70.28v-22.11-22.11l-78.33 0.08c-43.11 0.08-79.44 0.31-80.7 0.47z"></path>
		<path class="s0" d="m555.33 137.55c-4.5 0.24-6.24 0.63-6.64 1.42-0.23 0.71-1.5 1.19-3.08 1.19h-2.68v33.56 33.56h2.76c1.5 0 2.77-0.4 2.77-0.79 0-0.48 1.1-0.79 2.37-0.79q2.36 0 2.36-1.19c0-0.94 1.11-1.18 5.14-1.18 2.92 0 5.13-0.32 5.13-0.79 0-0.47 0.71-0.79 1.66-0.79 0.87 0 2.13-0.55 2.84-1.18 1.74-1.74 44.46-1.66 44.46 0.07 0 0.87 1.34 1.11 5.92 1.11 3.39 0 5.92 0.32 5.92 0.79 0 0.39 1.9 0.79 4.27 0.79 2.76 0 4.73 0.39 5.52 1.18 0.63 0.64 1.9 1.19 2.77 1.19 0.87 0 1.73 0.31 1.97 0.71 0.24 0.39 2.05 0.95 4.03 1.18 1.97 0.32 3.55 0.87 3.55 1.35 0 0.39 1.11 0.71 2.37 0.71q2.37 0 2.37 1.18c0 0.71 0.71 1.19 1.97 1.19 1.11 0 1.98 0.31 1.98 0.79 0 0.39 0.87 0.78 1.89 0.78 1.11 0 2.45 0.56 3.16 1.19 0.63 0.63 1.74 1.18 2.37 1.18 0.71 0 1.26 0.32 1.26 0.79 0 0.4 0.87 0.79 1.98 0.79 1.26 0 1.97 0.48 1.97 1.19 0 0.71 0.71 1.18 1.98 1.18 1.26 0 1.97 0.48 1.97 1.19 0 0.63 0.39 1.18 0.87 1.18 0.47 0 1.34 0.47 1.97 1.11 0.63 0.63 1.11 1.5 1.11 1.97 0 0.47 0.87 0.87 1.97 0.87 1.11 0 1.98 0.31 1.98 0.79 0 0.39 1.1 0.79 2.37 0.79 1.34 0 2.36 0.31 2.36 0.79 0 1.1 2.53 3.95 3.56 3.95 0.39 0 2.6 1.81 4.89 3.94 2.29 2.22 4.35 3.95 4.58 3.95 0.79 0 2.77 2.21 2.77 3.08 0 0.48 0.55 0.87 1.18 0.87 0.63 0 1.19 0.4 1.19 0.87 0 0.47 0.47 1.34 1.1 1.97 0.63 0.64 1.5 1.11 1.98 1.11 0.47 0 0.86 0.55 0.86 1.18 0 0.64 0.56 1.19 1.19 1.19 0.63 0 1.18 0.47 1.18 0.95 0.08 1.34 3.64 5.36 4.74 5.36 0.4 0 0.79 0.56 0.79 1.19 0 0.63 0.32 1.18 0.71 1.18 0.4 0 1.03 0.71 1.26 1.58 0.24 0.87 1.03 1.58 1.66 1.58 0.63 0 1.11 0.56 1.11 1.19 0 0.63 0.39 1.18 0.79 1.18 0.47 0 0.79 0.87 0.79 1.98 0 1.26 0.47 1.97 1.18 1.97 0.71 0 1.19 0.71 1.19 1.97 0 1.11 0.39 1.98 0.79 1.98 0.47 0 0.79 0.55 0.79 1.18 0 0.63 0.55 1.19 1.18 1.19 0.63 0 1.18 0.55 1.18 1.18 0 0.63 0.56 1.19 1.19 1.19 0.71 0 1.18 0.71 1.18 1.97 0 1.11 0.4 1.97 0.79 1.97 0.48 0 0.79 0.87 0.79 1.98 0 1.26 0.48 1.97 1.19 1.97 0.63 0 1.18 0.55 1.18 1.19 0 0.63 0.32 1.18 0.63 1.18 0.32 0 0.64 0.71 0.71 1.58 0.08 0.87 0.71 2.13 1.35 2.84 0.71 0.63 1.26 2.06 1.26 3.16 0 1.03 0.39 1.9 0.79 1.9 0.47 0 0.79 0.86 0.79 1.97 0 1.11 0.55 2.21 1.18 2.45 0.71 0.31 1.19 1.5 1.19 3.16 0 1.89 0.39 2.68 1.18 2.68q1.19 0 1.19 2.37c0 1.26 0.39 2.37 0.79 2.37 0.47 0 0.79 0.87 0.79 1.97 0 1.27 0.47 1.98 1.18 1.98 0.63 0 1.19 0.55 1.19 1.18 0 0.63 0.31 1.19 0.63 1.19 0.39 0 1.18 0.87 1.73 1.97 0.87 1.66 1.66 1.97 4.5 1.97 1.9 0 3.4 0.32 3.4 0.79 0 0.4 1.74 0.79 3.87 0.79 2.53 0 4.34 0.48 5.13 1.27 0.79 0.71 2.69 1.18 5.21 1.26 2.14 0 3.95 0.32 3.95 0.71 0 0.4 1.42 0.71 3.16 0.71 2.29 0 3.16 0.32 3.16 1.19 0 0.87 0.87 1.18 3.16 1.18 1.73 0 3.16 0.32 3.16 0.79 0 0.4 1.73 0.79 3.87 0.79 2.44 0 4.34 0.47 5.13 1.18 0.63 0.64 2.05 1.19 3.16 1.19 1.26 0 2.05 0.47 2.05 1.18 0 0.87 0.87 1.19 3.16 1.19 1.74 0 3.16 0.31 3.16 0.79 0 0.39 1.81 0.79 3.95 0.79h3.94v-5.14c0-4.02-0.23-5.13-1.18-5.13-0.87 0-1.19-0.87-1.19-3.16 0-1.73-0.31-3.15-0.63-3.15-0.31 0-0.63-0.79-0.63-1.82-0.08-6-0.39-7.66-1.5-7.66-0.95 0-1.18-1.03-1.18-4.34 0-2.37-0.32-4.35-0.79-4.35-0.4 0-0.79-1.26-0.79-2.76 0-1.74-0.48-3-1.19-3.24-0.63-0.31-1.18-1.18-1.18-2.05 0-0.87-0.55-2.05-1.19-2.69-0.63-0.71-1.18-1.89-1.18-2.68 0-0.79-0.32-1.74-0.79-1.97-0.4-0.24-0.79-1.35-0.79-2.45 0-1.11-0.55-2.53-1.18-3.16-0.64-0.71-1.19-2.05-1.19-3.16 0-1.03-0.32-1.89-0.79-1.89-0.39 0-0.79-1.43-0.79-3.16 0-2.29-0.31-3.16-1.18-3.16-0.63 0-1.19-0.55-1.19-1.19 0-0.63-0.55-1.18-1.18-1.18-0.87 0-1.19-0.87-1.19-3.16 0-1.74-0.31-3.16-0.79-3.16-0.39 0-0.79-0.87-0.79-1.97 0-1.11-0.47-1.98-1.02-1.98-0.63 0-1.58-1.42-2.13-3.15-0.56-1.74-1.5-3.16-2.14-3.16-0.55 0-1.02-0.87-1.02-1.98 0-1.26-0.48-1.97-1.19-1.97-0.71 0-1.18-0.71-1.18-1.66 0-0.95-0.87-2.53-1.98-3.55-1.1-1.03-1.97-2.53-1.97-3.48 0-0.87-0.32-1.58-0.79-1.58-0.39 0-0.79-0.87-0.79-1.97 0-1.11-0.39-1.97-0.87-1.97-1.26 0-3.08-2.06-3.08-3.48 0-0.71-0.31-1.26-0.71-1.26-0.39 0-1.02-0.71-1.26-1.58-0.24-0.87-1.03-1.58-1.66-1.58-0.63 0-1.11-0.55-1.11-1.19 0-0.63-0.31-1.18-0.78-1.18-0.4 0-0.79-0.87-0.79-1.97 0-1.27-0.48-1.98-1.19-1.98-0.63 0-1.18-0.39-1.18-0.87 0-1.1-1.98-3.08-3.08-3.08-0.48 0-0.87-0.86-0.87-1.97 0-1.26-0.48-1.97-1.19-1.97-0.63 0-1.18-0.56-1.18-1.19 0-0.63-0.32-1.18-0.79-1.18-0.39 0-0.79-0.56-0.79-1.19 0-0.63-0.39-1.18-0.87-1.18-1.1 0-3.08-1.98-3.08-3.08 0-0.48-0.55-0.87-1.18-0.87-0.63 0-1.19-0.4-1.19-0.79 0-0.47-0.55-0.79-1.18-0.79-0.63 0-1.19-0.55-1.19-1.18 0-0.64-0.31-1.19-0.79-1.19-0.39 0-0.78-0.55-0.78-1.18 0-0.63-0.4-1.19-0.87-1.19-1.11 0-3.08-1.97-3.08-3.08 0-0.47-0.56-0.87-1.19-0.87-0.63 0-1.18-0.39-1.18-0.79 0-0.47-0.55-0.79-1.19-0.79-0.63 0-1.18-0.39-1.18-0.86 0-1.42-3.16-3.79-4.42-3.32-0.63 0.24-1.11-0.08-1.11-0.87 0-0.71-0.55-1.26-1.18-1.26-0.63 0-1.19-0.4-1.19-0.87 0-1.11-1.97-3.08-3.08-3.08-0.47 0-0.87-0.55-0.87-1.18 0-0.72-0.71-1.19-1.97-1.19-1.11 0-1.97-0.39-1.97-0.79 0-0.47-0.56-0.79-1.19-0.79-0.63 0-1.18-0.31-1.18-0.79 0-1.42-2.69-3.95-4.19-3.95-1.34 0-2.05-0.47-4.81-2.92-0.64-0.55-2.53-1.42-4.35-1.97-1.81-0.55-3.23-1.5-3.23-1.98 0-0.55-0.87-1.02-1.98-1.02-1.26 0-1.97-0.48-1.97-1.19 0-1.1-0.95-1.5-2.53-1.26-0.39 0-0.63-0.24-0.63-0.71 0-0.4-0.71-0.79-1.58-0.79-0.87 0-1.82-0.55-2.05-1.19-0.32-0.63-1.19-1.18-1.98-1.18-0.79 0-1.5-0.39-1.5-0.79 0-0.47-0.87-0.79-1.97-0.79-1.27 0-1.98-0.47-1.98-1.18 0-0.87-0.87-1.19-3.16-1.19-2.29 0-3.15-0.31-3.15-1.18 0-0.79-0.87-1.19-2.77-1.19-1.5 0-2.76-0.39-2.76-0.79 0-0.47-1.11-0.79-2.37-0.79-1.42 0-2.61-0.47-2.84-1.18-0.32-0.71-1.5-1.19-2.77-1.19-1.26 0-2.29-0.39-2.29-0.78 0-0.48-1.42-0.79-3.08-0.79-1.73 0-3.63-0.56-4.34-1.19-0.63-0.63-2.05-1.18-3.16-1.18-1.02 0-2.45-0.56-3.16-1.19-0.63-0.63-2.52-1.18-4.34-1.18-1.82 0-3.24-0.4-3.24-0.79 0-0.48-2.13-0.79-4.73-0.79-3.48 0-4.74-0.32-4.74-1.03 0-0.87-2.53-1.18-10.82-1.58-10.9-0.47-55.2-0.47-66.8 0z"></path>
		<path class="s0" d="m745.87 347.83c-0.64 0.4-1.98 0.79-2.93 0.79-1.1 0-1.81 0.48-1.81 1.19 0 0.71-0.71 1.18-1.98 1.18-1.1 0-1.97 0.32-1.97 0.79 0 0.4-0.39 0.79-0.87 0.79-1.26 0-3.08 2.05-3.08 3.48 0 0.71-0.55 1.26-1.18 1.26-0.71 0-1.19 0.71-1.19 1.66 0 1.73-1.73 3.87-3.08 3.87-0.47 0-0.87 1.02-0.87 2.29 0 1.26-0.55 2.84-1.18 3.55-0.71 0.71-1.18 2.68-1.18 5.13 0 2.21-0.32 4.03-0.72 4.03-0.31 0-0.86 2.37-1.1 5.21-0.24 2.92-0.71 5.45-1.18 5.77-0.4 0.23-0.95 2.05-1.19 4.02-0.95 7.43-1.5 9.48-2.61 9.48-0.86 0-1.1 1.26-1.1 5.13 0 3.79-0.32 5.21-1.26 5.77-0.87 0.47-1.19 1.89-1.19 5.13 0 2.45-0.39 4.5-0.79 4.5-0.39 0-0.71 1.74-0.71 3.95 0 3-0.31 3.95-1.18 3.95-0.87 0-1.19 0.94-1.19 3.94 0 2.14-0.31 3.95-0.79 3.95-0.39 0-0.79 1.98-0.79 4.34 0 3.32-0.23 4.35-1.18 4.35-0.95 0-1.19 1.1-1.19 5.13 0 3.4-0.31 5.29-1.1 5.69-1.26 0.79-2.05 4.34-2.61 11.84-0.23 4.26-0.63 5.76-1.5 5.76-0.79 0-1.1 1.03-1.26 3.32-0.16 4.82-0.16 5.21-0.87 5.84-0.32 0.32-0.55 1.58-0.55 2.77 0 1.18-0.56 2.68-1.19 3.39-0.63 0.64-1.18 2.37-1.18 3.87 0 1.74-0.48 2.92-1.19 3.24-0.86 0.32-1.18 1.58-1.18 4.42 0 2.13-0.32 3.95-0.79 3.95-0.39 0-0.79 1.74-0.79 3.95 0 3-0.32 3.95-1.18 3.95-0.87 0-1.19 1.1-1.27 4.5-0.08 2.52-0.08 4.81 0 5.13 0 0.4-0.23 0.63-0.71 0.63-0.39 0-0.79 1.42-0.79 3.16 0 2.29-0.31 3.16-1.18 3.16-0.95 0-1.19 1.1-1.19 4.89 0 6.08-1.58 13.27-2.92 13.27-0.71 0-1.02 1.34-1.02 4.34 0 3.32-0.24 4.35-1.19 4.35-0.87 0-1.18 0.94-1.18 3.94 0 2.14-0.32 3.95-0.79 3.95-0.4 0-0.79 1.74-0.79 3.87 0 2.21-0.48 4.35-1.11 4.98-1.02 1.02-1.66 4.81-2.6 14.61-0.32 3.47-0.71 4.97-1.5 4.97-0.64 0-1.11 0.79-1.11 1.9 0 1.02-0.55 2.05-1.18 2.36-0.87 0.32-1.19 1.82-1.19 6.4 0 3.24-0.31 5.92-0.71 5.92-0.39 0-0.87 1.82-1.03 4.11-0.23 2.29-0.86 4.26-1.34 4.42-0.47 0.16-0.87 1.97-0.87 4.19 0 2.13-0.31 3.86-0.79 3.86-0.39 0-0.79 1.74-0.79 3.95 0 3-0.31 3.95-1.18 3.95-0.87 0-1.19 0.95-1.19 3.87 0 2.69-0.31 4.03-1.18 4.34-0.87 0.32-1.18 1.58-1.18 4.43 0 2.13-0.32 3.94-0.79 3.94-0.4 0-0.79 1.74-0.79 3.87 0 2.45-0.48 4.35-1.19 5.14-0.79 0.79-1.18 2.76-1.18 6 0 3.23 0.39 5.21 1.18 6 0.63 0.71 1.19 2.05 1.19 3.16 0 1.02 0.39 1.89 0.79 1.89 0.47 0 0.79 1.03 0.79 2.37q0 2.37 1.18 2.37c0.63 0 1.18 0.32 1.18 0.79 0 0.39 0.56 0.79 1.19 0.79 0.63 0 1.18 0.39 1.18 0.87 0 1.1 1.98 3.08 3.08 3.08 0.48 0 0.87 0.55 0.87 1.18 0 0.63 0.32 1.19 0.71 1.19 0.4 0 1.27 0.55 1.9 1.18 0.63 0.63 2.45 1.18 4.02 1.34 1.58 0.08 2.85 0.48 2.85 0.79 0 0.32 1.1 0.63 2.37 0.63q2.37 0 2.37 1.19c0 0.87 0.86 1.18 3.15 1.18 1.74 0 3.16 0.32 3.16 0.79 0 0.4 1.82 0.79 3.95 0.79 3 0 3.95 0.32 3.95 1.19 0 0.87 0.95 1.18 3.87 1.18 2.68 0 4.03 0.32 4.34 1.19 0.32 0.86 1.58 1.18 4.42 1.18 2.13 0 3.95 0.32 3.95 0.79 0 0.39 1.42 0.79 3.16 0.79 1.89 0 3.32 0.47 3.71 1.18 0.47 0.79 2.05 1.27 4.42 1.35 2.06 0.08 3.71 0.47 3.71 0.79 0 0.31 1.58 0.63 3.56 0.63 1.97 0 3.55-0.4 3.55-0.79 0-0.48 1.5-0.79 3.4-0.79 2.84 0 3.63-0.32 4.5-1.98 0.63-1.26 1.73-1.97 2.92-1.97 1.1 0 1.82-0.47 1.82-1.18 0-0.64 0.39-1.19 0.78-1.19 0.48 0 0.79-0.55 0.79-1.18 0-0.64 0.56-1.19 1.19-1.19 0.63 0 1.18-0.39 1.18-0.79 0-0.47 0.56-0.79 1.19-0.79 0.71 0 1.18-0.71 1.18-1.97 0-1.11 0.4-1.98 0.79-1.98 0.48 0 0.79-1.1 0.79-2.36 0-1.5 0.4-2.37 1.11-2.37 1.1 0 1.26-0.87 2.52-13.66 0.32-3.16 0.79-4.5 1.58-4.5 0.87 0 1.11-1.27 1.11-5.14 0-4.02 0.24-5.13 1.18-5.13 0.87 0 1.19-0.95 1.19-3.55 0-1.98 0.39-3.56 0.79-3.56 0.47 0 0.79-2.37 0.79-5.52 0-4.43 0.23-5.53 1.18-5.53 0.95 0 1.19-1.03 1.19-4.34 0-2.37 0.31-4.35 0.71-4.35 0.31 0 0.86-1.66 1.1-3.71 0.24-2.05 0.79-3.87 1.27-4.03 0.47-0.15 0.86-1.65 0.86-3.39 0-2.21 0.32-3.08 1.19-3.08 0.95 0 1.18-1.11 1.18-5.13 0-2.93 0.32-5.14 0.79-5.14 0.48 0 0.79-1.18 0.79-2.68 0-1.5 0.48-3.24 1.11-3.87 0.71-0.71 1.26-3.16 1.42-6.4 0.08-2.84 0.47-5.21 0.79-5.21 0.39 0 0.63-1.42 0.63-3.16 0-2.29 0.32-3.16 1.18-3.16 0.95 0 1.19-1.1 1.19-5.13 0-2.92 0.32-5.13 0.79-5.13 0.47 0 0.79-1.26 0.79-2.76 0-1.9 0.39-2.77 1.18-2.77 0.95 0 1.19-1.1 1.19-5.05 0-3.48 0.39-5.45 1.18-6.32 0.63-0.63 1.19-2.05 1.19-3.16 0-1.1 0.39-2.05 0.79-2.05 0.47 0 0.79-2.21 0.79-5.13 0-4.03 0.23-5.14 1.18-5.14 0.87 0 1.18-1.1 1.26-4.58 0.08-2.44 0.08-4.73 0-5.13 0-0.31 0.24-0.55 0.71-0.55 0.4 0 0.79-1.74 0.79-3.87 0-2.68 0.32-4.03 1.19-4.34 0.87-0.32 1.18-1.66 1.18-5.14 0-3.23 0.32-4.73 1.11-5.05 0.63-0.24 1.26-1.82 1.5-3.47 0.31-1.66 0.79-5.06 1.18-7.58 0.32-2.53 1.03-4.9 1.5-5.14 0.48-0.31 1.03-1.97 1.27-3.71 1.26-8.61 2.13-12.63 2.84-12.87 0.47-0.16 0.87-1.66 0.87-3.32 0-1.89 0.47-3.31 1.1-3.71 0.79-0.39 1.27-2.13 1.35-4.81 0.07-2.22 0.47-4.11 0.86-4.11 0.32 0 0.64-1.97 0.64-4.34 0-3.32 0.23-4.35 1.18-4.35 0.95 0 1.19-1.18 1.19-6.23 0-3.48 0.39-6.56 0.78-6.8 0.48-0.23 0.79-2.05 0.79-4.02 0-2.53 0.32-3.48 1.19-3.48 0.87 0 1.18-0.94 1.18-3.87 0-2.44 0.48-4.34 1.19-5.13 0.63-0.63 1.18-2.05 1.18-3.16 0-1.1 0.4-2.05 0.79-2.05 0.48 0 0.79-1.82 0.79-3.95 0-3 0.32-3.95 1.19-3.95 0.94 0 1.18-1.02 1.18-4.34 0-2.37 0.4-4.34 0.79-4.34 0.47 0 0.79-2.21 0.79-5.14 0-2.92 0.32-5.13 0.79-5.13 0.47 0 0.79-2.52 0.79-5.92 0-3.4-0.32-5.92-0.79-5.92-0.4 0-0.79-0.79-0.79-1.74 0-2.68-1.82-6.95-2.92-6.95-0.55 0-1.03-0.71-1.03-1.66 0-1.73-1.74-3.87-3.08-3.87-0.47 0-0.87-0.55-0.87-1.18 0-0.71-0.71-1.18-1.97-1.18-1.26 0-1.97-0.48-1.97-1.19 0-0.63-0.56-1.18-1.19-1.18-0.63 0-1.18-0.4-1.18-0.79 0-0.48-1.74-0.79-3.95-0.79-3 0-3.95-0.32-3.95-1.19 0-0.87-0.87-1.18-3.16-1.18-1.74 0-3.16-0.4-3.16-0.79 0-0.48-1.42-0.79-3.08-0.79-1.73 0-3.63-0.55-4.34-1.19-0.63-0.63-2.45-1.18-3.95-1.18-1.97 0-2.84-0.32-2.84-1.18 0-0.87-0.87-1.19-3.16-1.19-1.74 0-3.16-0.31-3.16-0.71 0-0.32-2.37-0.87-5.29-1.11-2.92-0.23-5.45-0.78-5.6-1.26-0.16-0.47-1.51-0.87-3.01-0.87-1.5 0-2.68-0.39-2.68-0.79 0-1.02-11.84-1.02-13.42 0zm35.06 50.93c0.63 0.64 1.73 1.19 2.36 1.19 0.72 0 1.27 0.39 1.27 0.87 0 1.1 1.97 3.08 3.08 3.08 0.47 0 0.87 1.42 0.87 3.16 0 1.73 0.39 3.15 0.86 3.15 0.87 0 0.87 11.14 0 11.85-0.23 0.24-1.18 1.74-1.97 3.32-1.1 2.21-2.05 3-3.39 3-1.11 0-1.82 0.47-1.82 1.18q0 1.19-2.37 1.19c-1.34 0-2.37 0.39-2.45 0.94q0 1.19-0.47 0c-0.48-1.1-4.98-1.34-4.98-0.16 0 0.4-0.55 0.79-1.18 0.79-0.63 0-1.19-0.39-1.19-0.79 0-0.47-1.26-0.78-2.76-0.78-1.89 0-2.76-0.4-2.76-1.19 0-0.63-0.56-1.18-1.19-1.18-0.63 0-1.18-0.4-1.18-0.79 0-0.48-0.55-0.79-1.19-0.79-0.71 0-1.18-0.71-1.18-1.98 0-1.1-0.32-1.97-0.79-1.97-0.39 0-0.79-0.87-0.79-1.9 0-1.02-0.47-2.05-0.95-2.29-1.26-0.39-1.1-7.89 0.08-8.29 0.48-0.16 0.87-1.18 0.87-2.21 0-1.03 0.32-1.89 0.71-1.89 0.4 0 0.95-0.87 1.19-1.98 0.31-1.1 0.86-1.97 1.26-1.97 0.47 0 0.79-0.55 0.79-1.19 0-0.71 0.71-1.18 1.97-1.18 1.27 0 1.98-0.47 1.98-1.19 0-0.94 1.34-1.18 7.02-1.18 5.22 0 7.35 0.32 8.3 1.18zm-64.28 229.39c0 0.4 0.87 0.79 1.89 0.79 1.11 0 2.45 0.56 3.16 1.19 0.63 0.63 1.5 1.18 1.98 1.18 0.47 0 0.87 0.32 0.87 0.79 0 0.4 0.55 0.79 1.18 0.79 0.63 0 1.18 0.55 1.18 1.19 0 0.63 0.56 1.18 1.19 1.18 0.63 0 1.18 0.55 1.18 1.19 0 0.63 0.4 1.18 0.79 1.18 0.48 0 0.79 2.61 0.79 6.32 0 4.5 0.32 6.31 1.03 6.39 0.63 0 0.71 0.16 0 0.4-0.47 0.23-1.34 1.97-1.9 3.95-0.55 1.89-1.5 3.47-2.05 3.47-0.55 0-1.03 0.32-1.03 0.79 0 0.4-0.55 0.79-1.18 0.79-0.63 0-1.18 0.55-1.18 1.18 0 0.79-0.87 1.19-2.77 1.19-1.5 0-2.76 0.39-2.76 0.79 0 0.47-2.05 0.79-4.74 0.71-2.61-0.08-4.74-0.47-4.74-0.79 0-0.4-1.26-0.71-2.76-0.71-1.5 0-2.76-0.4-2.76-0.87 0-1.11-1.98-3.08-3.08-3.08-0.48 0-0.87-1.1-0.87-2.37 0-1.34-0.32-2.37-0.79-2.37-0.4 0-0.79-0.55-0.79-1.18 0-0.63-0.48-1.19-0.95-1.27q-1.18 0 0-0.47c1.42-0.55 1.18-4.1-0.39-5.61-1.27-1.26-1.27-1.34 0-1.57 0.94-0.24 1.34-1.11 1.34-3.01 0-1.5 0.39-2.68 0.79-2.68 0.47 0 0.79-0.55 0.79-1.18 0-0.64 0.55-1.19 1.18-1.19 0.63 0 1.19-0.39 1.19-0.87 0-1.26 2.05-3.08 3.47-3.08 0.71 0 1.26-0.31 1.26-0.79 0-0.39 1.82-0.94 3.95-1.26 2.21-0.32 3.95-0.79 3.95-1.18 0-0.4 0.39-0.72 0.79-0.72 0.47 0 0.79 0.32 0.79 0.79z"></path>
		<path class="s0" d="m452.12 531.82c0 0.39-1.26 0.79-2.76 0.79-1.9 0-2.77 0.39-2.77 1.18 0 0.63-0.55 1.19-1.18 1.19-0.63 0-1.19 0.31-1.19 0.71 0 0.39-0.79 1.02-1.73 1.34-2.21 0.71-3.4 1.9-4.11 4.11-0.31 0.94-0.95 1.73-1.34 1.73-0.4 0-0.71 0.56-0.71 1.19 0 0.63-0.55 1.18-1.19 1.18-0.87 0-1.18 0.87-1.18 3.16 0 1.74-0.32 3.16-0.79 3.16-0.47 0-0.79 2.92-0.79 7.11 0 4.42 0.32 7.1 0.79 7.1 0.47 0 0.79 0.48 0.71 0.95-0.39 3 0.16 5.37 1.26 5.37 0.71 0 1.19 0.71 1.19 1.97 0 1.11 0.39 1.98 0.87 1.98 1.1 0 3.08 1.97 3.08 3.08 0 0.47 0.55 0.87 1.18 0.87 0.63 0 1.19 0.39 1.19 0.87 0 1.34 2.13 3.07 3.86 3.07 0.87 0 2.06 0.56 2.77 1.19 0.87 0.87 3.08 1.18 9.16 1.18 6.08 0 8.29-0.31 9.16-1.18 0.71-0.63 2.13-1.19 3.16-1.19 2.05 0 4.26-1.57 4.26-3.07 0-0.48 0.55-0.87 1.18-0.87 0.64 0 1.19-0.4 1.19-0.87 0-1.03 1.97-3.08 3-3.08 0.39 0 1.03-0.87 1.26-1.98 0.32-1.1 0.87-1.97 1.27-1.97 0.47 0 0.79-1.42 0.79-3.16 0-1.74 0.31-3.16 0.71-3.16 0.39 0 0.94-0.87 1.18-1.97 0.32-1.11 0.87-1.98 1.26-1.98 0.48 0 0.79-1.57 0.79-3.55 0-1.97-0.31-3.55-0.79-3.55-0.39 0-0.94-0.87-1.26-1.98-0.24-1.1-0.79-1.97-1.18-1.97-0.4 0-0.71-1.26-0.71-2.76 0-1.5-0.32-2.77-0.71-2.77-0.4 0-0.95-0.87-1.19-1.97-0.31-1.11-1.03-1.98-1.66-1.98-0.63 0-1.18-0.39-1.18-0.86 0-1.19-1.74-2.77-3.71-3.4-0.95-0.32-1.82-1.34-1.98-2.29-0.23-1.5-0.79-1.74-3.95-1.97-2.13-0.16-3.79-0.56-3.79-1.03 0-0.4-3-0.71-6.71-0.71-3.95 0-6.71 0.31-6.71 0.79z"></path>
		<path class="s0" d="m520.98 650.66c-0.56 0.63-1.74 1.18-2.69 1.18-0.87 0-2.45 0.87-3.47 1.98-1.03 1.1-2.06 1.97-2.29 1.97-0.79 0-2.77 2.21-2.77 3.08 0 0.48-0.31 0.87-0.79 0.87-0.39 0-0.78 0.47-0.78 1.11 0 0.63-0.48 1.65-1.11 2.21-0.55 0.63-1.34 1.89-1.58 2.84-0.32 0.95-0.95 1.74-1.34 1.74-1.27 0-0.87 10.26 0.47 11.53 0.63 0.71 1.19 2.05 1.19 3.15 0 1.19 0.47 1.9 1.18 1.9 0.63 0 1.19 0.55 1.19 1.18 0 0.63 0.39 1.19 0.78 1.19 0.48 0 0.79 0.87 0.79 1.89 0 1.35 0.56 2.06 1.98 2.37 1.1 0.32 1.97 0.87 1.97 1.27 0 0.47 0.56 0.78 1.19 0.78 0.63 0 1.18 0.32 1.18 0.79 0 0.4 0.87 0.79 1.98 0.79 1.26 0 1.97 0.48 1.97 1.19 0 0.95 1.42 1.18 7.9 1.18 4.34 0 7.89-0.31 7.89-0.71 0-0.39 1.11-0.95 2.37-1.26 1.34-0.32 2.37-0.87 2.37-1.26 0-0.4 0.55-0.72 1.18-0.72 0.64 0 1.19-0.55 1.19-1.18 0-0.63 0.39-1.18 0.79-1.18 0.47 0 0.79-0.56 0.79-1.19 0-0.63 0.39-1.18 0.87-1.18 1.34 0 3.08-2.14 3.08-3.87 0-0.87 0.47-2.06 1.02-2.61 0.63-0.55 1.35-2.05 1.66-3.24 0.24-1.18 0.87-2.13 1.26-2.13 0.48 0 0.79-1.42 0.79-3.16 0-1.73-0.31-3.15-0.79-3.15-0.39 0-1.02-0.95-1.26-2.14-0.31-1.18-1.03-2.68-1.66-3.23-0.55-0.56-1.02-1.74-1.02-2.61 0-1.74-1.74-3.87-3.08-3.87-0.48 0-0.87-0.55-0.87-1.18 0-0.64-0.32-1.19-0.79-1.19-0.4 0-0.79-0.55-0.79-1.18 0-0.63-0.55-1.19-1.19-1.19-0.63 0-1.18-0.31-1.18-0.71 0-0.39-0.87-0.95-1.97-1.18-1.11-0.32-1.98-0.87-1.98-1.27 0-1.34-14.45-0.94-15.63 0.4z"></path>
		<path class="s0" d="m385 677.11c0 0.4-1.26 0.79-2.76 0.79-1.74 0-3 0.48-3.24 1.19-0.32 0.63-1.18 1.18-2.05 1.18-1.66 0-3.79 1.74-3.79 3.08 0 0.47-0.56 0.87-1.19 0.87-0.63 0-1.18 0.55-1.18 1.18 0 0.63-0.4 1.19-0.87 1.19-0.47 0-1.34 0.47-1.97 1.1-0.64 0.63-1.11 1.5-1.11 1.98 0 0.47-0.55 0.87-1.18 0.87-0.64 0-1.19 0.55-1.19 1.18 0 0.63-0.31 1.18-0.79 1.18-0.39 0-0.79 0.87-0.79 1.9 0 1.11-0.55 2.45-1.18 3.16-0.63 0.63-1.19 1.5-1.19 1.97 0 0.48-0.55 0.87-1.18 0.87-1.03 0-1.19 1.66-1.19 10.27 0 8.6 0.16 10.26 1.19 10.26 0.71 0 1.18 0.71 1.18 1.98 0 1.26 0.48 1.97 1.19 1.97 0.87 0 1.18 0.87 1.18 3.16 0 2.68 0.24 3.16 1.66 3.16 1.74 0 3.87 1.73 3.87 3.08 0 0.47 0.55 0.87 1.18 0.87 0.64 0 1.19 0.55 1.19 1.18 0 0.63 0.39 1.18 0.87 1.18 0.47 0 1.34 0.48 1.89 0.95 3.63 3.32 6.71 4.58 10.66 4.58 2.29 0 3.16 0.32 3.16 1.19 0 0.94 1.11 1.18 5.13 1.18 4.03 0 5.14-0.24 5.14-1.18 0-0.79 0.79-1.19 2.29-1.19 1.34 0 2.6-0.39 2.84-0.79 0.24-0.47 1.5-0.79 2.84-0.79 1.5 0 2.29-0.39 2.29-1.18 0-0.71 0.71-1.19 1.66-1.19 1.74 0 3.87-1.73 3.87-3.08 0-0.47 0.55-0.86 1.18-0.86 0.63 0 1.19-0.56 1.19-1.19 0-0.63 0.39-1.18 0.87-1.18 1.18 0 2.76-1.74 3.39-3.79 0.32-0.95 0.95-1.74 1.34-1.74 0.4 0 0.71-0.55 0.71-1.19 0-0.63 0.4-1.18 0.79-1.18 0.48 0 0.79-0.87 0.79-1.9 0-1.1 0.56-2.44 1.19-3.15 0.87-0.87 1.18-3.08 1.18-9.08 0-6.56-0.23-7.98-1.18-7.98-0.87 0-1.19-0.87-1.19-3.24 0-3.08-1.34-5.45-3.08-5.45-0.47 0-0.86-0.71-0.86-1.65 0-1.66-3.95-6.24-5.45-6.24-0.48 0-0.87-0.4-0.87-0.87 0-1.11-1.98-3.08-3.08-3.08-0.47 0-0.87-0.55-0.87-1.19 0-0.86-0.87-1.18-3.16-1.18-2.29 0-3.16-0.32-3.16-1.18 0-0.79-0.87-1.19-2.76-1.19-1.5 0-2.76-0.39-2.76-0.79 0-0.47-2.61-0.79-6.32-0.79-3.71 0-6.32 0.32-6.32 0.79z"></path>
		<path class="s0" d="m667.69 715.41c0 1.1-0.39 1.97-0.87 1.97-1.89 0-3.08 2.37-3.08 6.24 0 3.08-0.31 4.03-1.18 4.03-0.95 0-1.19 1.5-1.19 9.08 0 7.58-0.23 9.08-1.18 9.08-0.95 0-1.18 1.18-1.18 5.92 0 3.4-0.32 5.92-0.79 5.92-0.4 0-0.79 1.98-0.79 4.35 0 3.31-0.24 4.34-1.19 4.34-0.87 0-1.18 0.87-1.18 3.16 0 1.74-0.32 3.16-0.79 3.16-0.4 0-0.79 0.87-0.79 1.97 0 1.19-0.48 1.98-1.11 1.98-0.63 0-1.34 0.86-1.58 1.97-0.31 1.11-0.87 1.97-1.26 1.97-0.47 0-0.79 0.87-0.79 1.98 0 1.1-0.32 1.97-0.79 1.97-0.39 0-0.79 0.87-0.79 1.98 0 1.26-0.47 1.97-1.18 1.97-0.63 0-1.19 0.55-1.19 1.19 0 0.63-0.31 1.18-0.79 1.18-0.39 0-0.79 0.55-0.79 1.18 0 0.64-0.39 1.19-0.87 1.19-1.18 0-3.86 3.08-3.86 4.5 0 0.55-0.48 1.03-1.11 1.03-0.55 0-1.26 0.71-1.5 1.58-0.24 0.86-1.42 1.97-2.69 2.52-2.6 1.19-4.18 2.53-4.18 3.71 0 0.48-1.03 0.87-2.37 0.87-1.26 0-2.37 0.32-2.37 0.79 0 0.4-0.87 0.79-1.97 0.79-1.27 0-1.98 0.48-1.98 1.19 0 0.79-0.79 1.18-2.29 1.18-1.26 0-2.44 0.4-2.6 0.87-0.55 1.66-6.95 2.6-20.14 2.84-9.16 0.24-13.66 0-13.66-0.55 0-0.4-1.42-0.79-3.16-0.79-2.29 0-3.16-0.32-3.16-1.19 0-0.86-0.86-1.18-3.15-1.18-2.29 0-3.16-0.32-3.16-1.18 0-0.71-0.71-1.19-1.98-1.19-1.1 0-1.97-0.39-1.97-0.79 0-0.47-0.87-0.79-1.98-0.79-1.26 0-1.97-0.47-1.97-1.18 0-0.63-0.39-1.19-0.79-1.19-0.95 0-2.21-0.94-5.68-4.18-1.27-1.19-2.69-2.13-3.08-2.13-0.4 0-0.71-0.4-0.71-0.87 0-0.48-0.48-1.34-0.95-1.9-2.37-2.6-3-3.55-3-4.34 0-0.4-0.87-0.79-1.98-0.79h-1.97v39.8c0 39.16 0 39.87 1.58 40.35 0.87 0.23 1.58 0.87 1.58 1.26 0 0.4 1.1 0.71 2.37 0.71 1.34 0 2.37 0.32 2.37 0.79 0 0.4 0.86 0.79 1.97 0.79 1.26 0 1.97 0.48 1.97 1.19 0 0.86 0.87 1.18 3.16 1.18 1.74 0 3.16 0.32 3.16 0.79 0 0.39 1.82 0.79 3.95 0.79 3 0 3.95 0.32 3.95 1.18 0 0.95 1.34 1.19 7.42 1.19 5.61 0 7.74 0.31 8.69 1.18 1.73 1.74 18.63 1.74 18.63 0 0-0.94 1.34-1.18 7.5-1.18 6.16 0 7.5-0.24 7.5-1.19 0-0.86 0.95-1.18 3.95-1.18 2.21 0 3.95-0.24 3.95-0.63 0-0.32 0.87-0.63 1.97-0.63 1.03-0.08 2.53-0.71 3.16-1.43 0.71-0.71 2.14-1.26 3.24-1.26 1.03 0 1.9-0.39 1.9-0.79 0-0.47 1.42-0.79 3.15-0.79 1.74 0 3.16-0.31 3.16-0.79 0-0.39 0.87-0.95 1.98-1.26 1.1-0.24 1.97-0.95 1.97-1.58 0-0.63 0.79-1.11 1.98-1.11 1.1 0 1.97-0.39 1.97-0.79 0-0.47 0.87-0.79 1.97-0.79 1.27 0 1.98-0.47 1.98-1.18 0-0.63 0.55-1.18 1.18-1.18 0.63 0 1.19-0.4 1.19-0.79 0-0.48 0.87-0.79 1.97-0.79 1.26 0 1.97-0.48 1.97-1.19 0-0.63 0.56-1.18 1.19-1.18 0.63 0 1.18-0.4 1.18-0.79 0-0.48 0.64-0.79 1.42-0.79 1.43 0 4.11-2.61 4.11-3.95 0-0.47 0.71-0.79 1.5-0.79 0.79 0 1.66-0.55 1.98-1.18 0.23-0.64 1.42-1.66 2.6-2.14 2.61-1.18 4.19-2.6 4.19-3.71 0-0.47 0.55-0.87 1.18-0.87 0.63 0 1.19-0.47 1.19-1.02 0-0.63 0.86-1.58 1.97-2.13 1.1-0.56 1.97-1.5 1.97-2.14 0-0.55 0.4-1.02 0.87-1.02 1.11 0 3.08-1.98 3.08-3.08 0-0.48 0.55-0.87 1.19-0.87 0.63 0 1.18-0.4 1.18-0.87 0-1.11 1.97-3.08 3.08-3.08 0.47 0 0.87-0.55 0.87-1.18 0-0.64 0.55-1.19 1.18-1.19 0.71 0 1.19-0.71 1.19-1.97 0-1.11 0.39-1.98 0.79-1.98 0.47 0 0.79-0.55 0.79-1.18 0-0.63 0.47-1.19 1.1-1.19 0.63 0 1.58-1.26 2.13-2.76 0.56-1.5 1.43-2.76 1.98-2.76 0.47 0 1.18-0.87 1.42-1.98 0.32-1.1 0.79-1.89 1.11-1.89 1.89 0.31 2.52-0.32 2.52-2.45q0-2.37 1.19-2.37c0.71 0 1.18-0.71 1.18-1.97 0-1.11 0.4-1.98 0.79-1.98 0.47 0 0.79-0.87 0.79-1.97 0-1.26 0.47-1.97 1.18-1.97 0.72 0 1.19-0.72 1.19-1.98 0-1.26 0.47-1.97 1.18-1.97 0.71 0 1.19-0.71 1.19-1.98 0-1.1 0.39-1.97 0.79-1.97 0.47 0 0.79-1.11 0.79-2.37q0-2.37 1.18-2.37c1.03 0 1.66-2.45 1.27-4.97 0-0.32 0.31-0.56 0.71-0.56 0.47 0 0.79-0.55 0.79-1.18 0-0.63 0.55-1.19 1.18-1.19 0.71 0 1.18-0.71 1.18-1.89 0-1.11 0.56-2.45 1.19-3.16 0.63-0.63 1.18-2.05 1.18-3.16 0-1.1 0.4-2.05 0.79-2.05 0.48 0 0.79-1.42 0.79-3.08 0-1.74 0.48-3.63 1.03-4.19 1.03-1.02 1.42-2.13 2.84-8.84 0.4-1.66 1.19-3.32 1.74-3.71 0.55-0.32 1.03-1.9 0.95-3.4-0.08-1.58 0.23-2.84 0.63-2.84 0.39 0 0.71-1.03 0.71-2.29 0-1.26 0.55-2.84 1.18-3.55 0.64-0.63 1.19-2.06 1.19-3.16 0-1.66-0.4-2.05-2.13-2.13-1.27-0.08-2.45-0.08-2.77 0-0.39 0-0.63-0.32-0.63-0.71 0-0.48-0.55-0.79-1.18-0.79-0.64 0-1.19-0.56-1.19-1.19 0-0.87-0.87-1.18-3.16-1.18-1.73 0-3.16-0.32-3.16-0.71 0-0.4-2.21-0.87-4.89-1.03-2.76-0.24-5.05-0.79-5.21-1.26-0.16-0.56-1.9-0.95-4.19-0.95-2.13 0-3.87-0.39-3.87-0.79 0-0.47-1.42-0.79-3.08-0.79-1.73 0-3.63-0.55-4.34-1.18-0.63-0.71-2.92-1.27-5.13-1.43-2.61-0.07-4.03-0.47-4.03-1.18 0-0.79-2.76-1.42-4.9-1.03-0.39 0-0.63-0.31-0.63-0.71 0-0.47-1.58-0.79-3.55-0.79-2.61 0-3.55-0.31-3.55-1.18 0-0.79-0.87-1.19-2.77-1.19-1.5 0-2.76-0.39-2.76-0.79 0-0.47-1.42-0.78-3.16-0.78-2.84 0-3.16 0.15-3.16 1.97z"></path>
	</g>
</svg></svg></g></g><defs><clipPath id="SvgjsClipPath1034"><rect width="1000" height="1000" x="0" y="0" rx="350" ry="350"></rect></clipPath></defs></svg>