<?xml version="1.0" standalone="no"?>
<!DOCTYPE svg PUBLIC "-//W3C//DTD SVG 20010904//EN"
 "http://www.w3.org/TR/2001/REC-SVG-20010904/DTD/svg10.dtd">
<svg version="1.0" xmlns="http://www.w3.org/2000/svg"
 width="1024.000000pt" height="1024.000000pt" viewBox="0 0 1024.000000 1024.000000"
 preserveAspectRatio="xMidYMid meet">

<g transform="translate(0.000000,1024.000000) scale(0.100000,-0.100000)"
fill="#000000" stroke="none">
<path d="M3126 9853 c-16 -3 -35 -11 -43 -19 -8 -8 -24 -14 -35 -14 -11 0 -31
-11 -44 -25 -13 -14 -26 -25 -29 -25 -10 0 -35 -28 -35 -39 0 -6 -4 -11 -10
-11 -5 0 -10 -7 -10 -15 0 -8 -5 -15 -11 -15 -13 0 -69 -55 -69 -69 0 -5 -6
-16 -13 -23 -19 -20 -37 -66 -37 -93 0 -16 -6 -25 -15 -25 -10 0 -15 -11 -15
-35 0 -24 -5 -35 -15 -35 -13 0 -15 -27 -15 -185 0 -108 4 -185 9 -185 5 0 13
-10 17 -22 3 -12 13 -28 20 -36 8 -7 14 -27 14 -43 0 -16 5 -29 10 -29 6 0 10
-16 10 -35 0 -24 5 -35 15 -35 8 0 15 -7 15 -15 0 -8 5 -15 10 -15 6 0 10 -11
10 -25 0 -16 6 -25 15 -25 8 0 15 -7 15 -15 0 -8 5 -15 11 -15 14 0 39 -25 39
-39 0 -6 6 -11 13 -11 8 0 19 -11 27 -24 7 -14 23 -27 36 -30 13 -4 24 -11 24
-16 0 -6 7 -10 15 -10 8 0 15 -4 15 -10 0 -5 7 -10 15 -10 8 0 15 -7 15 -15 0
-9 9 -15 23 -15 13 0 28 -5 35 -12 16 -16 18 -1698 2 -1698 -6 0 -10 -41 -10
-104 0 -78 -4 -108 -14 -119 -10 -9 -16 -39 -17 -86 -1 -39 -6 -71 -11 -71 -4
0 -8 -20 -8 -45 0 -33 -4 -45 -15 -45 -10 0 -15 -10 -15 -34 0 -21 -6 -36 -15
-40 -9 -3 -15 -19 -15 -41 0 -19 -4 -35 -10 -35 -5 0 -10 -18 -10 -40 0 -29
-4 -40 -15 -40 -8 0 -15 -8 -15 -17 0 -30 -24 -83 -37 -83 -8 0 -13 -14 -13
-40 0 -22 -4 -40 -10 -40 -5 0 -10 -11 -10 -25 0 -16 -6 -25 -15 -25 -11 0
-15 -11 -15 -39 0 -22 -7 -46 -15 -55 -8 -8 -15 -26 -15 -40 0 -14 -4 -26 -10
-26 -5 0 -10 -11 -10 -25 0 -16 -6 -25 -15 -25 -9 0 -15 -9 -15 -25 0 -14 -4
-25 -10 -25 -5 0 -10 -11 -10 -24 0 -14 -7 -31 -15 -40 -8 -8 -15 -22 -15 -31
0 -8 -7 -18 -15 -21 -8 -4 -15 -15 -15 -25 0 -10 -4 -19 -10 -19 -5 0 -10 -22
-10 -50 0 -38 -4 -50 -15 -50 -9 0 -15 -9 -15 -25 0 -14 -4 -25 -10 -25 -5 0
-10 -11 -10 -25 0 -15 -6 -25 -14 -25 -8 0 -17 -11 -20 -25 -4 -14 -11 -25
-16 -25 -6 0 -10 -13 -10 -30 0 -16 -4 -30 -10 -30 -5 0 -10 -11 -10 -25 0
-16 -6 -25 -15 -25 -9 0 -15 -9 -15 -25 0 -14 -4 -25 -10 -25 -5 0 -10 -18
-10 -40 0 -29 -4 -40 -15 -40 -9 0 -15 -9 -15 -24 0 -13 -7 -26 -15 -30 -8 -3
-15 -15 -15 -26 0 -11 -4 -20 -9 -20 -5 0 -11 -18 -15 -39 -3 -22 -11 -41 -16
-43 -6 -2 -12 -13 -13 -26 0 -12 -5 -22 -9 -22 -4 0 -8 -11 -8 -25 0 -16 -6
-25 -15 -25 -9 0 -15 -10 -15 -26 0 -26 -20 -54 -39 -54 -6 0 -11 -18 -11 -40
0 -29 -4 -40 -15 -40 -9 0 -15 -9 -15 -25 0 -14 -4 -25 -10 -25 -5 0 -10 -11
-10 -25 0 -16 -6 -25 -15 -25 -11 0 -15 -11 -15 -40 0 -22 -4 -40 -10 -40 -5
0 -10 -11 -10 -25 0 -16 -6 -25 -15 -25 -9 0 -15 -9 -15 -25 0 -14 -7 -28 -15
-31 -8 -4 -15 -17 -15 -29 0 -13 -4 -27 -10 -30 -5 -3 -10 -15 -10 -26 0 -10
-6 -19 -14 -19 -13 0 -19 -18 -33 -97 -3 -19 -11 -33 -19 -33 -7 0 -16 -11
-20 -25 -3 -14 -10 -25 -15 -25 -5 0 -9 -11 -9 -25 0 -14 -4 -25 -10 -25 -5 0
-10 -18 -10 -40 0 -29 -4 -40 -15 -40 -9 0 -15 -9 -15 -25 0 -14 -4 -25 -10
-25 -5 0 -10 -11 -10 -25 0 -16 -6 -25 -15 -25 -10 0 -15 -10 -15 -30 0 -20
-5 -30 -15 -30 -9 0 -15 -9 -15 -25 0 -14 -4 -25 -10 -25 -5 0 -10 -15 -10
-34 0 -21 -6 -36 -15 -40 -8 -3 -15 -17 -15 -31 0 -14 -4 -25 -10 -25 -5 0
-10 -11 -10 -25 0 -16 -6 -25 -15 -25 -9 0 -15 -9 -15 -25 0 -14 -4 -25 -10
-25 -5 0 -12 -11 -16 -25 -3 -14 -10 -25 -15 -25 -5 0 -9 -11 -9 -25 0 -16 -6
-25 -15 -25 -10 0 -15 -10 -15 -30 0 -16 -4 -30 -10 -30 -5 0 -10 -11 -10 -25
0 -16 -6 -25 -15 -25 -11 0 -15 -11 -15 -40 0 -22 -4 -40 -10 -40 -5 0 -10
-11 -10 -25 0 -16 -6 -25 -15 -25 -9 0 -15 -9 -15 -24 0 -14 -6 -31 -13 -38
-7 -7 -22 -34 -32 -61 -10 -26 -22 -47 -26 -47 -5 0 -9 -13 -9 -30 0 -16 -4
-30 -10 -30 -5 0 -10 -11 -10 -25 0 -15 -6 -25 -14 -25 -8 0 -17 -11 -20 -25
-4 -14 -11 -25 -16 -25 -6 0 -10 -13 -10 -29 0 -17 -5 -33 -10 -36 -5 -3 -10
-19 -10 -36 0 -19 -5 -29 -15 -29 -10 0 -15 -10 -15 -30 0 -16 -4 -30 -10 -30
-5 0 -10 -11 -10 -25 0 -16 -6 -25 -15 -25 -9 0 -15 -9 -15 -25 0 -16 -6 -25
-15 -25 -13 0 -21 -31 -16 -62 0 -5 -3 -8 -9 -8 -5 0 -10 -7 -10 -15 0 -8 -6
-15 -14 -15 -9 0 -16 -15 -20 -42 -12 -93 -18 -118 -32 -118 -10 0 -14 -12
-14 -39 0 -23 -7 -46 -16 -56 -11 -10 -15 -27 -12 -50 3 -24 0 -35 -9 -35 -8
0 -13 -14 -13 -40 0 -28 -4 -40 -14 -40 -30 0 -33 -523 -4 -541 6 -4 13 -30
16 -58 2 -28 8 -51 11 -51 4 0 8 -16 9 -36 2 -20 9 -43 17 -51 8 -8 15 -25 15
-39 0 -15 6 -24 15 -24 11 0 15 -11 15 -40 0 -22 5 -40 10 -40 6 0 10 -11 10
-25 0 -16 6 -25 15 -25 8 0 15 -7 15 -15 0 -8 5 -15 10 -15 6 0 10 -11 10 -25
0 -16 6 -25 15 -25 8 0 15 -6 15 -14 0 -8 7 -17 15 -20 9 -3 21 -19 26 -36 6
-16 17 -30 25 -30 8 0 14 -5 14 -11 0 -14 25 -39 39 -39 6 0 11 -7 11 -15 0
-8 7 -15 15 -15 8 0 15 -5 15 -11 0 -14 25 -39 39 -39 6 0 11 -6 11 -13 0 -14
40 -37 65 -37 8 0 15 -5 15 -11 0 -14 25 -39 39 -39 6 0 11 -7 11 -15 0 -9 9
-15 25 -15 16 0 25 -6 25 -15 0 -8 8 -15 17 -15 25 0 103 -31 103 -41 0 -5 7
-9 15 -9 8 0 15 -4 15 -10 0 -5 18 -10 40 -10 29 0 40 -4 40 -15 0 -11 11 -15
40 -15 28 0 40 -4 40 -14 0 -11 19 -16 73 -20 39 -4 131 -11 202 -17 79 -6
658 -12 1468 -15 l1337 -4 0 280 0 279 -1405 3 c-1039 2 -1408 6 -1413 14 -4
7 -31 15 -59 18 -29 3 -75 9 -103 12 -33 4 -50 11 -50 20 0 8 -10 14 -25 14
-16 0 -25 6 -25 15 0 9 -9 15 -25 15 -14 0 -25 5 -25 10 0 6 -11 10 -25 10
-16 0 -25 6 -25 15 0 8 -7 15 -15 15 -8 0 -15 5 -15 10 0 6 -7 10 -15 10 -8 0
-15 5 -15 11 0 7 -16 26 -35 45 -19 18 -35 37 -35 43 0 6 -7 11 -15 11 -8 0
-15 5 -15 11 0 6 -6 17 -13 24 -33 37 -37 47 -37 80 0 24 -4 35 -15 35 -11 0
-15 11 -15 40 0 22 -5 40 -10 40 -7 0 -10 60 -7 183 5 191 18 309 36 315 6 2
11 19 11 38 0 19 5 34 10 34 6 0 10 18 10 40 0 29 4 40 15 40 11 0 15 11 15
40 0 29 4 40 15 40 9 0 15 9 15 25 0 14 5 25 10 25 6 0 10 11 10 24 0 14 7 31
15 40 8 8 15 19 15 25 0 6 5 11 10 11 6 0 10 11 10 25 0 16 6 25 15 25 11 0
15 11 15 40 0 29 4 40 15 40 9 0 15 9 15 25 0 14 4 25 10 25 5 0 12 16 16 35
3 19 9 35 13 35 7 0 31 72 31 95 0 8 7 15 15 15 10 0 15 10 15 30 0 18 6 33
15 36 8 4 15 15 15 25 0 10 5 19 10 19 6 0 10 11 10 25 0 16 6 25 15 25 9 0
15 9 15 25 0 14 5 25 10 25 6 0 10 11 10 24 0 14 7 31 15 40 8 8 15 26 15 40
0 16 6 26 15 26 9 0 15 9 15 25 0 14 5 25 10 25 6 0 10 11 10 24 0 13 7 26 15
30 8 3 15 17 15 31 0 14 5 25 10 25 6 0 10 11 10 25 0 16 6 25 15 25 9 0 15 9
15 24 0 13 7 26 15 30 8 3 15 15 15 26 0 11 5 20 10 20 6 0 10 18 10 40 0 29
4 40 15 40 9 0 15 9 15 25 0 14 5 25 10 25 6 0 10 11 10 24 0 14 7 31 15 40 8
8 16 26 17 40 1 14 5 26 9 26 4 0 10 11 13 25 4 14 11 25 16 25 6 0 10 11 10
25 0 14 7 28 15 31 8 4 15 15 15 26 0 11 6 26 13 33 36 41 36 42 54 143 3 18
11 32 19 32 8 0 14 10 14 25 0 16 6 25 15 25 9 0 15 9 15 25 0 14 5 25 10 25
6 0 10 11 10 25 0 16 6 25 15 25 13 0 22 38 16 73 0 4 4 7 9 7 6 0 10 7 10 15
0 8 7 15 15 15 9 0 15 9 15 25 0 16 6 25 15 25 11 0 15 11 15 40 0 22 5 40 10
40 6 0 10 11 10 25 0 16 6 25 15 25 13 0 21 31 16 63 0 4 3 7 8 7 5 0 12 11
15 25 4 14 11 25 16 25 6 0 10 13 10 29 0 16 6 31 15 35 9 3 15 18 15 36 0 16
5 30 10 30 6 0 10 7 10 15 0 8 7 15 15 15 10 0 15 10 15 30 0 17 5 30 10 30 6
0 10 11 10 24 0 14 7 31 15 40 8 8 15 19 15 25 0 6 5 11 10 11 6 0 10 18 10
40 0 29 4 40 15 40 9 0 15 9 15 25 0 16 6 25 15 25 9 0 15 9 15 25 0 14 5 25
10 25 6 0 10 11 10 24 0 14 7 31 15 40 8 8 15 19 15 25 0 6 5 11 10 11 6 0 10
13 10 29 0 16 6 36 14 43 7 8 17 24 20 36 4 12 12 22 17 22 5 0 9 18 9 40 0
22 4 40 9 40 5 0 12 11 15 25 4 14 11 25 16 25 6 0 10 12 10 26 0 26 20 54 39
54 6 0 11 18 11 40 0 29 4 40 15 40 9 0 15 9 15 25 0 14 5 25 10 25 6 0 10 11
10 25 0 16 6 25 15 25 12 0 15 13 15 55 0 30 5 55 10 55 6 0 10 11 10 25 0 16
6 25 15 25 9 0 15 9 15 25 0 16 6 25 15 25 11 0 15 11 15 40 0 22 5 40 10 40
6 0 10 11 10 25 0 16 6 25 15 25 11 0 15 11 15 40 0 22 5 40 10 40 6 0 10 14
10 30 0 18 6 33 15 36 9 4 15 19 15 35 0 16 5 29 10 29 6 0 10 28 10 65 0 49
4 67 15 71 10 4 15 20 15 50 0 32 4 44 15 44 11 0 15 11 15 40 0 22 5 40 10
40 6 0 10 36 10 89 0 66 4 93 15 105 20 19 22 251 3 260 -10 5 -10 7 0 12 9 4
12 219 12 1024 l0 1018 -25 6 c-14 4 -25 11 -25 16 0 6 -48 10 -120 10 -73 0
-120 4 -120 10 0 6 -11 10 -25 10 -16 0 -25 6 -25 15 0 8 -4 15 -10 15 -5 0
-10 11 -10 24 0 13 -5 26 -12 28 -8 3 -14 33 -16 81 -4 66 -2 77 12 77 9 0 16
5 16 10 0 7 303 10 890 10 l890 0 0 280 0 280 -992 -1 c-546 -1 -1006 -4
-1022 -6z"/>
<path d="M5667 9853 c-57 -3 -79 -8 -84 -18 -3 -9 -19 -15 -39 -15 l-34 0 0
-425 0 -425 35 0 c19 0 35 5 35 10 0 6 14 10 30 10 20 0 30 5 30 15 0 12 14
15 65 15 37 0 65 4 65 10 0 6 9 10 21 10 11 0 27 7 36 15 22 22 563 21 563 -1
0 -11 17 -14 75 -14 43 0 75 -4 75 -10 0 -5 24 -10 54 -10 35 0 60 -5 70 -15
8 -8 24 -15 35 -15 11 0 22 -4 25 -9 3 -5 26 -12 51 -15 25 -4 45 -11 45 -17
0 -5 14 -9 30 -9 20 0 30 -5 30 -15 0 -9 9 -15 25 -15 14 0 25 -4 25 -10 0 -5
11 -10 24 -10 14 0 31 -7 40 -15 8 -8 22 -15 30 -15 9 0 16 -4 16 -10 0 -5 11
-10 25 -10 16 0 25 -6 25 -15 0 -9 9 -15 25 -15 16 0 25 -6 25 -15 0 -8 5 -15
11 -15 6 0 17 -6 25 -14 8 -8 14 -19 14 -25 0 -6 11 -11 25 -11 14 0 25 -4 25
-10 0 -5 14 -10 30 -10 17 0 30 -4 30 -10 0 -14 32 -50 45 -50 5 0 33 -23 62
-50 29 -28 55 -50 58 -50 10 0 35 -28 35 -39 0 -6 7 -11 15 -11 8 0 15 -5 15
-11 0 -6 6 -17 14 -25 8 -8 19 -14 25 -14 6 0 11 -7 11 -15 0 -8 7 -15 15 -15
8 0 15 -6 15 -12 1 -17 46 -68 60 -68 5 0 10 -7 10 -15 0 -8 4 -15 9 -15 5 0
13 -9 16 -20 3 -11 13 -20 21 -20 8 0 14 -7 14 -15 0 -8 5 -15 10 -15 6 0 10
-11 10 -25 0 -16 6 -25 15 -25 9 0 15 -9 15 -25 0 -14 5 -25 10 -25 6 0 10 -7
10 -15 0 -8 7 -15 15 -15 8 0 15 -7 15 -15 0 -8 7 -15 15 -15 9 0 15 -9 15
-25 0 -14 5 -25 10 -25 6 0 10 -11 10 -25 0 -16 6 -25 15 -25 8 0 15 -7 15
-15 0 -8 4 -15 8 -15 4 0 8 -9 9 -20 1 -11 9 -27 17 -36 9 -8 16 -26 16 -40 0
-13 5 -24 10 -24 6 0 10 -11 10 -25 0 -14 7 -28 15 -31 9 -4 15 -19 15 -40 0
-24 5 -34 15 -34 10 0 15 -10 15 -30 0 -16 5 -30 10 -30 6 0 10 -11 10 -25 0
-16 6 -25 15 -25 8 0 15 -7 15 -15 0 -8 4 -15 8 -15 5 0 15 -11 22 -25 11 -21
21 -25 57 -25 24 0 43 -4 43 -10 0 -5 22 -10 49 -10 32 0 55 -6 65 -16 10 -9
34 -15 66 -16 27 0 50 -4 50 -9 0 -5 18 -9 40 -9 29 0 40 -4 40 -15 0 -11 11
-15 40 -15 22 0 40 -4 40 -10 0 -5 22 -10 49 -10 31 0 55 -6 65 -15 8 -8 26
-15 40 -15 16 0 26 -6 26 -15 0 -11 11 -15 40 -15 22 0 40 -4 40 -10 0 -5 23
-10 50 -10 l50 0 0 65 c0 51 -3 65 -15 65 -11 0 -15 11 -15 40 0 22 -4 40 -8
40 -4 0 -8 10 -8 23 -1 76 -5 97 -19 97 -12 0 -15 13 -15 55 0 30 -4 55 -10
55 -5 0 -10 16 -10 35 0 22 -6 38 -15 41 -8 4 -15 15 -15 26 0 11 -7 26 -15
34 -8 9 -15 24 -15 34 0 10 -4 22 -10 25 -5 3 -10 17 -10 31 0 14 -7 32 -15
40 -8 9 -15 26 -15 40 0 13 -4 24 -10 24 -5 0 -10 18 -10 40 0 29 -4 40 -15
40 -8 0 -15 7 -15 15 0 8 -7 15 -15 15 -11 0 -15 11 -15 40 0 22 -4 40 -10 40
-5 0 -10 11 -10 25 0 14 -6 25 -13 25 -8 0 -20 18 -27 40 -7 22 -19 40 -27 40
-7 0 -13 11 -13 25 0 16 -6 25 -15 25 -9 0 -15 9 -15 21 0 12 -11 32 -25 45
-14 13 -25 32 -25 44 0 11 -4 20 -10 20 -5 0 -10 11 -10 25 0 14 -5 25 -11 25
-16 0 -39 26 -39 44 0 9 -4 16 -9 16 -5 0 -13 9 -16 20 -3 11 -13 20 -21 20
-8 0 -14 7 -14 15 0 8 -4 15 -10 15 -5 0 -10 11 -10 25 0 16 -6 25 -15 25 -8
0 -15 5 -15 11 0 14 -25 39 -39 39 -6 0 -11 11 -11 25 0 16 -6 25 -15 25 -8 0
-15 7 -15 15 0 8 -4 15 -10 15 -5 0 -10 7 -10 15 0 8 -5 15 -11 15 -14 0 -39
25 -39 39 0 6 -7 11 -15 11 -8 0 -15 5 -15 10 0 6 -7 10 -15 10 -8 0 -15 7
-15 15 0 8 -4 15 -10 15 -5 0 -10 7 -10 15 0 8 -5 15 -11 15 -14 0 -39 25 -39
39 0 6 -7 11 -15 11 -8 0 -15 5 -15 10 0 6 -7 10 -15 10 -8 0 -15 5 -15 11 0
18 -40 48 -56 42 -8 -3 -14 1 -14 11 0 9 -7 16 -15 16 -8 0 -15 5 -15 11 0 14
-25 39 -39 39 -6 0 -11 7 -11 15 0 9 -9 15 -25 15 -14 0 -25 5 -25 10 0 6 -7
10 -15 10 -8 0 -15 4 -15 10 0 18 -34 50 -53 50 -17 0 -26 6 -61 37 -8 7 -32
18 -55 25 -23 7 -41 19 -41 25 0 7 -11 13 -25 13 -16 0 -25 6 -25 15 0 14 -12
19 -32 16 -5 0 -8 3 -8 9 0 5 -9 10 -20 10 -11 0 -23 7 -26 15 -4 8 -15 15
-25 15 -10 0 -19 5 -19 10 0 6 -11 10 -25 10 -16 0 -25 6 -25 15 0 11 -11 15
-40 15 -29 0 -40 4 -40 15 0 10 -11 15 -35 15 -19 0 -35 5 -35 10 0 6 -14 10
-30 10 -18 0 -33 6 -36 15 -4 9 -19 15 -35 15 -16 0 -29 5 -29 10 0 6 -18 10
-39 10 -22 0 -46 7 -55 15 -8 8 -26 15 -40 15 -13 0 -31 7 -40 15 -8 8 -32 15
-55 15 -23 0 -41 5 -41 10 0 6 -27 10 -60 10 -44 0 -60 4 -60 13 0 11 -32 15
-137 20 -138 6 -699 6 -846 0z"/>
<path d="M8080 7190 c-8 -5 -25 -10 -37 -10 -14 0 -23 -6 -23 -15 0 -9 -9 -15
-25 -15 -14 0 -25 -4 -25 -10 0 -5 -5 -10 -11 -10 -16 0 -39 -26 -39 -44 0 -9
-7 -16 -15 -16 -9 0 -15 -9 -15 -21 0 -22 -22 -49 -39 -49 -6 0 -11 -13 -11
-29 0 -16 -7 -36 -15 -45 -9 -9 -15 -34 -15 -65 0 -28 -4 -51 -9 -51 -4 0 -11
-30 -14 -66 -3 -37 -9 -69 -15 -73 -5 -3 -12 -26 -15 -51 -12 -94 -19 -120
-33 -120 -11 0 -14 -16 -14 -65 0 -48 -4 -66 -16 -73 -11 -6 -15 -24 -15 -65
0 -31 -5 -57 -10 -57 -5 0 -9 -22 -9 -50 0 -38 -4 -50 -15 -50 -11 0 -15 -12
-15 -50 0 -27 -4 -50 -10 -50 -5 0 -10 -25 -10 -55 0 -42 -3 -55 -15 -55 -12
0 -15 -14 -15 -65 0 -43 -4 -67 -14 -72 -16 -10 -26 -55 -33 -150 -3 -54 -8
-73 -19 -73 -10 0 -14 -13 -16 -42 -2 -61 -2 -66 -11 -74 -4 -4 -7 -20 -7 -35
0 -15 -7 -34 -15 -43 -8 -8 -15 -30 -15 -49 0 -22 -6 -37 -15 -41 -11 -4 -15
-20 -15 -56 0 -27 -4 -50 -10 -50 -5 0 -10 -22 -10 -50 0 -38 -4 -50 -15 -50
-11 0 -15 -14 -16 -57 -1 -32 -1 -61 0 -65 0 -5 -3 -8 -9 -8 -5 0 -10 -18 -10
-40 0 -29 -4 -40 -15 -40 -12 0 -15 -14 -15 -62 0 -77 -20 -168 -37 -168 -9 0
-13 -17 -13 -55 0 -42 -3 -55 -15 -55 -11 0 -15 -12 -15 -50 0 -27 -4 -50 -10
-50 -5 0 -10 -22 -10 -49 0 -28 -6 -55 -14 -63 -13 -13 -21 -61 -33 -185 -4
-44 -9 -63 -19 -63 -8 0 -14 -10 -14 -24 0 -13 -7 -26 -15 -30 -11 -4 -15 -23
-15 -81 0 -41 -4 -75 -9 -75 -5 0 -11 -23 -13 -52 -3 -29 -11 -54 -17 -56 -6
-2 -11 -25 -11 -53 0 -27 -4 -49 -10 -49 -5 0 -10 -22 -10 -50 0 -38 -4 -50
-15 -50 -11 0 -15 -12 -15 -49 0 -34 -4 -51 -15 -55 -11 -4 -15 -20 -15 -56 0
-27 -4 -50 -10 -50 -5 0 -10 -22 -10 -49 0 -31 -6 -55 -15 -65 -10 -10 -15
-35 -15 -76 0 -41 5 -66 15 -76 8 -9 15 -26 15 -40 0 -13 5 -24 10 -24 6 0 10
-13 10 -30 0 -20 5 -30 15 -30 8 0 15 -4 15 -10 0 -5 7 -10 15 -10 8 0 15 -5
15 -11 0 -14 25 -39 39 -39 6 0 11 -7 11 -15 0 -8 4 -15 9 -15 5 0 16 -7 24
-15 8 -8 31 -15 51 -17 20 -1 36 -6 36 -10 0 -4 14 -8 30 -8 20 0 30 -5 30
-15 0 -11 11 -15 40 -15 22 0 40 -4 40 -10 0 -5 23 -10 50 -10 38 0 50 -4 50
-15 0 -11 12 -15 49 -15 34 0 51 -4 55 -15 4 -11 20 -15 56 -15 27 0 50 -4 50
-10 0 -5 18 -10 40 -10 24 0 42 -6 47 -15 6 -10 26 -16 56 -17 26 -1 47 -6 47
-10 0 -4 20 -8 45 -8 25 0 45 5 45 10 0 6 19 10 43 10 36 0 46 4 57 25 8 16
22 25 37 25 14 0 23 6 23 15 0 8 5 15 10 15 6 0 10 7 10 15 0 8 7 15 15 15 8
0 15 5 15 10 0 6 7 10 15 10 9 0 15 9 15 25 0 14 5 25 10 25 6 0 10 14 10 30
0 19 5 30 14 30 14 0 16 11 32 173 4 40 10 57 20 57 11 0 14 16 14 65 0 51 3
65 15 65 11 0 15 12 15 45 0 25 5 45 10 45 6 0 10 30 10 70 0 56 3 70 15 70
12 0 15 13 15 55 0 30 4 55 9 55 4 0 11 21 14 47 3 26 10 49 16 51 6 2 11 21
11 43 0 28 4 39 15 39 12 0 15 14 15 65 0 37 4 65 10 65 6 0 10 15 10 34 0 19
6 41 14 49 9 9 16 40 18 81 1 36 6 66 10 66 5 0 8 18 8 40 0 29 4 40 15 40 12
0 15 14 15 65 0 37 4 65 10 65 6 0 10 16 10 35 0 24 5 35 15 35 12 0 15 14 15
64 0 44 5 69 15 80 8 8 15 26 15 40 0 14 5 26 10 26 6 0 10 28 10 65 0 51 3
65 15 65 11 0 15 14 16 58 1 31 1 60 0 65 0 4 3 7 9 7 5 0 10 22 10 49 0 34 4
51 15 55 11 4 15 21 15 65 0 41 4 60 14 64 8 3 16 23 19 44 4 21 10 64 15 96
4 32 13 62 19 65 6 4 13 25 16 47 16 109 27 160 36 163 6 2 11 21 11 42 0 24
6 42 14 47 10 5 16 27 17 61 1 28 6 52 11 52 4 0 8 25 8 55 0 42 3 55 15 55
12 0 15 15 15 79 0 44 5 83 10 86 6 3 10 26 10 51 0 32 4 44 15 44 11 0 15 12
15 49 0 31 6 55 15 65 8 8 15 26 15 40 0 14 5 26 10 26 6 0 10 23 10 50 0 38
4 50 15 50 12 0 15 13 15 55 0 30 5 55 10 55 6 0 10 28 10 65 0 37 4 65 10 65
6 0 10 32 10 75 0 43 -4 75 -10 75 -5 0 -10 10 -10 22 0 34 -23 88 -37 88 -7
0 -13 9 -13 21 0 22 -22 49 -39 49 -6 0 -11 7 -11 15 0 9 -9 15 -25 15 -16 0
-25 6 -25 15 0 8 -7 15 -15 15 -8 0 -15 5 -15 10 0 6 -22 10 -50 10 -38 0 -50
4 -50 15 0 11 -11 15 -40 15 -22 0 -40 5 -40 10 0 6 -18 10 -39 10 -22 0 -46
7 -55 15 -8 8 -31 15 -50 15 -25 0 -36 4 -36 15 0 11 -11 15 -40 15 -22 0 -40
4 -40 9 0 4 -30 11 -67 14 -37 3 -69 10 -71 16 -2 6 -19 11 -38 11 -19 0 -34
5 -34 10 0 13 -150 13 -170 0z m444 -645 c8 -8 22 -15 30 -15 9 0 16 -5 16
-11 0 -14 25 -39 39 -39 6 0 11 -18 11 -40 0 -22 5 -40 11 -40 11 0 11 -141 0
-150 -3 -3 -15 -22 -25 -42 -14 -28 -26 -38 -43 -38 -14 0 -23 -6 -23 -15 0
-10 -10 -15 -30 -15 -17 0 -30 -5 -31 -12 0 -10 -2 -10 -6 0 -6 14 -63 17 -63
2 0 -5 -7 -10 -15 -10 -8 0 -15 5 -15 10 0 6 -16 10 -35 10 -24 0 -35 5 -35
15 0 8 -7 15 -15 15 -8 0 -15 5 -15 10 0 6 -7 10 -15 10 -9 0 -15 9 -15 25 0
14 -4 25 -10 25 -5 0 -10 11 -10 24 0 13 -6 26 -12 29 -16 5 -14 100 1 105 6
2 11 15 11 28 0 13 4 24 9 24 5 0 12 11 15 25 4 14 11 25 16 25 6 0 10 7 10
15 0 9 9 15 25 15 16 0 25 6 25 15 0 12 17 15 89 15 66 0 93 -4 105 -15z
m-814 -2905 c0 -5 11 -10 24 -10 14 0 31 -7 40 -15 8 -8 19 -15 25 -15 6 0 11
-4 11 -10 0 -5 7 -10 15 -10 8 0 15 -7 15 -15 0 -8 7 -15 15 -15 8 0 15 -7 15
-15 0 -8 5 -15 10 -15 6 0 10 -33 10 -80 0 -57 4 -80 13 -81 8 0 9 -2 0 -5 -6
-3 -17 -25 -24 -50 -7 -24 -19 -44 -26 -44 -7 0 -13 -4 -13 -10 0 -5 -7 -10
-15 -10 -8 0 -15 -7 -15 -15 0 -10 -11 -15 -35 -15 -19 0 -35 -5 -35 -10 0 -6
-26 -10 -60 -9 -33 1 -60 6 -60 10 0 5 -16 9 -35 9 -19 0 -35 5 -35 11 0 14
-25 39 -39 39 -6 0 -11 14 -11 30 0 17 -4 30 -10 30 -5 0 -10 7 -10 15 0 8 -6
15 -12 16 -10 0 -10 2 0 6 18 7 15 52 -5 71 -16 16 -16 17 0 20 12 3 17 14 17
38 0 19 5 34 10 34 6 0 10 7 10 15 0 8 7 15 15 15 8 0 15 5 15 11 0 16 26 39
44 39 9 0 16 4 16 10 0 5 23 12 50 16 28 4 50 10 50 15 0 5 5 9 10 9 6 0 10
-4 10 -10z"/>
<path d="M4360 4860 c0 -5 -16 -10 -35 -10 -24 0 -35 -5 -35 -15 0 -8 -7 -15
-15 -15 -8 0 -15 -4 -15 -9 0 -5 -10 -13 -22 -17 -28 -9 -43 -24 -52 -52 -4
-12 -12 -22 -17 -22 -5 0 -9 -7 -9 -15 0 -8 -7 -15 -15 -15 -11 0 -15 -11 -15
-40 0 -22 -4 -40 -10 -40 -6 0 -10 -37 -10 -90 0 -56 4 -90 10 -90 6 0 10 -6
9 -12 -5 -38 2 -68 16 -68 9 0 15 -9 15 -25 0 -14 5 -25 11 -25 14 0 39 -25
39 -39 0 -6 7 -11 15 -11 8 0 15 -5 15 -11 0 -17 27 -39 49 -39 11 0 26 -7 35
-15 11 -11 39 -15 116 -15 77 0 105 4 116 15 9 8 27 15 40 15 26 0 54 20 54
39 0 6 7 11 15 11 8 0 15 5 15 11 0 13 25 39 38 39 5 0 13 11 16 25 4 14 11
25 16 25 6 0 10 18 10 40 0 22 4 40 9 40 5 0 12 11 15 25 4 14 11 25 16 25 6
0 10 20 10 45 0 25 -4 45 -10 45 -5 0 -12 11 -16 25 -3 14 -10 25 -15 25 -5 0
-9 16 -9 35 0 19 -4 35 -9 35 -5 0 -12 11 -15 25 -4 14 -13 25 -21 25 -8 0
-15 5 -15 11 0 15 -22 35 -47 43 -12 4 -23 17 -25 29 -3 19 -10 22 -50 25 -27
2 -48 7 -48 13 0 5 -38 9 -85 9 -50 0 -85 -4 -85 -10z"/>
<path d="M5232 3355 c-7 -8 -22 -15 -34 -15 -11 0 -31 -11 -44 -25 -13 -14
-26 -25 -29 -25 -10 0 -35 -28 -35 -39 0 -6 -4 -11 -10 -11 -5 0 -10 -6 -10
-14 0 -8 -6 -21 -14 -28 -7 -8 -17 -24 -20 -36 -4 -12 -12 -22 -17 -22 -16 0
-11 -130 6 -146 8 -9 15 -26 15 -40 0 -15 6 -24 15 -24 8 0 15 -7 15 -15 0 -8
5 -15 10 -15 6 0 10 -11 10 -24 0 -17 7 -26 25 -30 14 -4 25 -11 25 -16 0 -6
7 -10 15 -10 8 0 15 -4 15 -10 0 -5 11 -10 25 -10 16 0 25 -6 25 -15 0 -12 18
-15 100 -15 55 0 100 4 100 9 0 5 14 12 30 16 17 4 30 11 30 16 0 5 7 9 15 9
8 0 15 7 15 15 0 8 5 15 10 15 6 0 10 7 10 15 0 8 5 15 11 15 17 0 39 27 39
49 0 11 6 26 13 33 8 7 17 26 21 41 3 15 11 27 16 27 6 0 10 18 10 40 0 22 -4
40 -10 40 -5 0 -13 12 -16 27 -4 15 -13 34 -21 41 -7 7 -13 22 -13 33 0 22
-22 49 -39 49 -6 0 -11 7 -11 15 0 8 -4 15 -10 15 -5 0 -10 7 -10 15 0 8 -7
15 -15 15 -8 0 -15 4 -15 9 0 5 -11 12 -25 15 -14 4 -25 11 -25 16 0 17 -183
12 -198 -5z"/>
<path d="M3510 3020 c0 -5 -16 -10 -35 -10 -22 0 -38 -6 -41 -15 -4 -8 -15
-15 -26 -15 -21 0 -48 -22 -48 -39 0 -6 -7 -11 -15 -11 -8 0 -15 -7 -15 -15 0
-8 -5 -15 -11 -15 -6 0 -17 -6 -25 -14 -8 -8 -14 -19 -14 -25 0 -6 -7 -11 -15
-11 -8 0 -15 -7 -15 -15 0 -8 -4 -15 -10 -15 -5 0 -10 -11 -10 -24 0 -14 -7
-31 -15 -40 -8 -8 -15 -19 -15 -25 0 -6 -7 -11 -15 -11 -13 0 -15 -21 -15
-130 0 -109 2 -130 15 -130 9 0 15 -9 15 -25 0 -16 6 -25 15 -25 11 0 15 -11
15 -40 0 -34 3 -40 21 -40 22 0 49 -22 49 -39 0 -6 7 -11 15 -11 8 0 15 -7 15
-15 0 -8 5 -15 11 -15 6 0 17 -6 24 -12 46 -42 85 -58 135 -58 29 0 40 -4 40
-15 0 -12 14 -15 65 -15 51 0 65 3 65 15 0 10 10 15 29 15 17 0 33 5 36 10 3
6 19 10 36 10 19 0 29 5 29 15 0 9 9 15 21 15 22 0 49 22 49 39 0 6 7 11 15
11 8 0 15 7 15 15 0 8 5 15 11 15 15 0 35 22 43 48 4 12 12 22 17 22 5 0 9 7
9 15 0 8 5 15 10 15 6 0 10 11 10 24 0 14 7 31 15 40 11 11 15 39 15 115 0 83
-3 101 -15 101 -11 0 -15 11 -15 41 0 39 -17 69 -39 69 -6 0 -11 9 -11 21 0
21 -50 79 -69 79 -6 0 -11 5 -11 11 0 14 -25 39 -39 39 -6 0 -11 7 -11 15 0
11 -11 15 -40 15 -29 0 -40 4 -40 15 0 10 -11 15 -35 15 -19 0 -35 5 -35 10 0
6 -33 10 -80 10 -47 0 -80 -4 -80 -10z"/>
<path d="M7090 2535 c0 -14 -5 -25 -11 -25 -24 0 -39 -30 -39 -79 0 -39 -4
-51 -15 -51 -12 0 -15 -19 -15 -115 0 -96 -3 -115 -15 -115 -12 0 -15 -15 -15
-75 0 -43 -4 -75 -10 -75 -5 0 -10 -25 -10 -55 0 -42 -3 -55 -15 -55 -11 0
-15 -11 -15 -40 0 -22 -4 -40 -10 -40 -5 0 -10 -11 -10 -25 0 -15 -6 -25 -14
-25 -8 0 -17 -11 -20 -25 -4 -14 -11 -25 -16 -25 -6 0 -10 -11 -10 -25 0 -14
-4 -25 -10 -25 -5 0 -10 -11 -10 -25 0 -16 -6 -25 -15 -25 -8 0 -15 -7 -15
-15 0 -8 -4 -15 -10 -15 -5 0 -10 -7 -10 -15 0 -8 -5 -15 -11 -15 -15 0 -49
-39 -49 -57 0 -7 -6 -13 -14 -13 -7 0 -16 -9 -19 -20 -3 -11 -18 -25 -34 -32
-33 -15 -53 -32 -53 -47 0 -6 -13 -11 -30 -11 -16 0 -30 -4 -30 -10 0 -5 -11
-10 -25 -10 -16 0 -25 -6 -25 -15 0 -10 -10 -15 -29 -15 -16 0 -31 -5 -33 -11
-7 -21 -88 -33 -255 -36 -116 -3 -173 0 -173 7 0 5 -18 10 -40 10 -29 0 -40 4
-40 15 0 11 -11 15 -40 15 -29 0 -40 4 -40 15 0 9 -9 15 -25 15 -14 0 -25 5
-25 10 0 6 -11 10 -25 10 -16 0 -25 6 -25 15 0 8 -5 15 -10 15 -12 0 -28 12
-72 53 -16 15 -34 27 -39 27 -5 0 -9 5 -9 11 0 6 -6 17 -12 24 -30 33 -38 45
-38 55 0 5 -11 10 -25 10 l-25 0 0 -504 c0 -496 0 -505 20 -511 11 -3 20 -11
20 -16 0 -5 14 -9 30 -9 17 0 30 -4 30 -10 0 -5 11 -10 25 -10 16 0 25 -6 25
-15 0 -11 11 -15 40 -15 22 0 40 -4 40 -10 0 -5 23 -10 50 -10 38 0 50 -4 50
-15 0 -12 17 -15 94 -15 71 0 98 -4 110 -15 22 -22 236 -22 236 0 0 12 17 15
95 15 78 0 95 3 95 15 0 11 12 15 50 15 28 0 50 3 50 8 0 4 11 8 25 8 13 1 32
9 40 18 9 9 27 16 41 16 13 0 24 5 24 10 0 6 18 10 40 10 22 0 40 4 40 10 0 5
11 12 25 16 14 3 25 12 25 20 0 8 10 14 25 14 14 0 25 5 25 10 0 6 11 10 25
10 16 0 25 6 25 15 0 8 7 15 15 15 8 0 15 5 15 10 0 6 11 10 25 10 16 0 25 6
25 15 0 8 7 15 15 15 8 0 15 5 15 10 0 6 8 10 18 10 18 0 52 33 52 50 0 6 9
10 19 10 10 0 21 7 25 15 3 8 18 21 33 27 33 15 53 33 53 47 0 6 7 11 15 11 8
0 15 6 15 13 0 8 11 20 25 27 14 7 25 19 25 27 0 7 5 13 11 13 14 0 39 25 39
39 0 6 7 11 15 11 8 0 15 5 15 11 0 14 25 39 39 39 6 0 11 7 11 15 0 8 7 15
15 15 9 0 15 9 15 25 0 14 5 25 10 25 6 0 10 7 10 15 0 8 6 15 14 15 8 0 20
16 27 35 7 19 18 35 25 35 6 0 15 11 18 25 4 14 10 24 14 24 24 -4 32 4 32 31
0 20 5 30 15 30 9 0 15 9 15 25 0 14 5 25 10 25 6 0 10 11 10 25 0 16 6 25 15
25 9 0 15 9 15 25 0 16 6 25 15 25 9 0 15 9 15 25 0 14 5 25 10 25 6 0 10 14
10 30 0 20 5 30 15 30 13 0 21 31 16 63 0 4 4 7 9 7 6 0 10 7 10 15 0 8 7 15
15 15 9 0 15 9 15 24 0 14 7 31 15 40 8 8 15 26 15 40 0 14 5 26 10 26 6 0 10
18 10 39 0 22 6 46 13 53 13 13 18 27 36 112 5 21 15 42 22 47 7 4 13 24 12
43 -1 20 3 36 8 36 5 0 9 13 9 29 0 16 7 36 15 45 8 8 15 26 15 40 0 21 -5 26
-27 27 -16 1 -31 1 -35 0 -5 0 -8 4 -8 9 0 6 -7 10 -15 10 -8 0 -15 7 -15 15
0 11 -11 15 -40 15 -22 0 -40 4 -40 9 0 5 -28 11 -62 13 -35 3 -64 10 -66 16
-2 7 -24 12 -53 12 -27 0 -49 5 -49 10 0 6 -18 10 -39 10 -22 0 -46 7 -55 15
-8 9 -37 16 -65 18 -33 1 -51 6 -51 15 0 10 -35 18 -62 13 -5 0 -8 4 -8 9 0 6
-20 10 -45 10 -33 0 -45 4 -45 15 0 10 -11 15 -35 15 -19 0 -35 5 -35 10 0 6
-18 10 -40 10 -36 0 -40 -2 -40 -25z"/>
</g>
</svg>
