<svg version="1.2" xmlns="http://www.w3.org/2000/svg" viewBox="0 0 800 800" width="800" height="800">
	<style>
		.s0 { fill: #ffffff } 
	</style>
	<path id="Layer copy" class="s0" d="m712.5 400c0.07-105.7-53.3-204.26-141.84-261.99-88.55-57.72-200.27-66.77-296.95-24.05-96.68 42.71-165.22 131.4-182.17 235.73-16.95 104.33 19.99 210.15 98.18 281.28q0.28 0.34 0.59 0.65 0.31 0.32 0.64 0.62 0.33 0.29 0.68 0.56 0.35 0.27 0.72 0.51c28.33 25.29 61.05 45.19 96.53 58.72 35.49 13.53 73.15 20.47 111.12 20.47 37.98 0 75.64-6.94 111.12-20.47 35.49-13.53 68.2-33.43 96.54-58.72q0.36-0.25 0.71-0.51 0.35-0.27 0.68-0.57 0.33-0.29 0.64-0.61 0.3-0.31 0.59-0.65c16.06-14.58 30.55-30.79 43.25-48.38 12.69-17.59 23.52-36.45 32.3-56.29 8.78-19.83 15.46-40.53 19.94-61.75 4.48-21.23 6.74-42.86 6.73-64.55zm-600 0c-0.07-95.99 47.78-185.68 127.54-239.09 79.76-53.41 180.92-63.49 269.65-26.86 88.73 36.62 153.33 115.11 172.2 209.23 18.87 94.12-10.48 191.45-78.23 259.45-7.67-12.85-16.54-24.94-26.5-36.1-9.95-11.17-20.94-21.36-32.83-30.45-11.88-9.09-24.6-17.03-37.98-23.71-13.38-6.69-27.37-12.08-41.78-16.12 55.73-29.65 84.12-93.43 68.84-154.67-15.27-61.25-70.29-104.23-133.41-104.23-63.12 0-118.14 42.98-133.41 104.23-15.28 61.24 13.11 125.02 68.84 154.67-14.41 4.04-28.4 9.43-41.78 16.12-13.38 6.68-26.1 14.62-37.98 23.71-11.89 9.09-22.88 19.28-32.83 30.45-9.96 11.16-18.83 23.25-26.5 36.09-13.27-13.28-25.2-27.83-35.62-43.45-10.43-15.62-19.29-32.22-26.47-49.57-7.17-17.35-12.62-35.36-16.28-53.78-3.65-18.41-5.48-37.14-5.47-55.92zm287.5 87.5c-45.5 0-86.52-27.41-103.94-69.45-17.41-42.04-7.78-90.42 24.39-122.6 32.18-32.17 80.56-41.8 122.6-24.39 42.04 17.42 69.45 58.44 69.45 103.94-0.02 14.77-2.94 29.39-8.6 43.03-5.66 13.64-13.94 26.04-24.39 36.48-10.44 10.45-22.84 18.73-36.48 24.39-13.64 5.66-28.26 8.58-43.03 8.6zm-184.8 132.55c18.55-32.65 45.43-59.81 77.89-78.7 32.46-18.9 69.35-28.85 106.91-28.85 37.56 0 74.45 9.95 106.91 28.85 32.46 18.89 59.33 46.05 77.89 78.7-25.67 21.62-54.92 38.56-86.44 50.06-31.52 11.5-64.81 17.39-98.36 17.39-33.55 0-66.84-5.89-98.36-17.39-31.52-11.5-60.77-28.44-86.44-50.06z"/>
</svg>